<svg class="animated" id="freepik_stories-environmental-audit" xmlns="http://www.w3.org/2000/svg" xmlns:xlink="http://www.w3.org/1999/xlink" viewBox="0 0 750 500" version="1.1" xmlns:svgjs="http://svgjs.com/svgjs"><style>svg#freepik_stories-environmental-audit:not(.animated) .animable {opacity: 0;}svg#freepik_stories-environmental-audit.animated #elci50blhtfl {animation: 2.5s 1 forwards cubic-bezier(.36,-0.01,.5,1.38) slideUp;animation-delay: 0s;}svg#freepik_stories-environmental-audit.animated #freepik--Floor--inject-32 {animation: 2.5s 1 forwards cubic-bezier(.36,-0.01,.5,1.38) slideUp,1.5s Infinite  linear heartbeat;animation-delay: 0s,2.5s;}svg#freepik_stories-environmental-audit.animated #freepik--City--inject-32 {animation: 1s 1 forwards cubic-bezier(.36,-0.01,.5,1.38) zoomIn;animation-delay: 0s;}svg#freepik_stories-environmental-audit.animated #freepik--Factory--inject-32 {animation: 1s 1 forwards cubic-bezier(.36,-0.01,.5,1.38) lightSpeedLeft;animation-delay: 0s;}svg#freepik_stories-environmental-audit.animated #freepik--trees-2--inject-32 {animation: 1s 1 forwards cubic-bezier(.36,-0.01,.5,1.38) slideLeft;animation-delay: 0s;}svg#freepik_stories-environmental-audit.animated #freepik--Clouds--inject-32 {animation: 1s 1 forwards cubic-bezier(.36,-0.01,.5,1.38) slideLeft;animation-delay: 0s;}svg#freepik_stories-environmental-audit.animated #freepik--speech-bubble--inject-32 {animation: 1s 1 forwards cubic-bezier(.36,-0.01,.5,1.38) fadeIn;animation-delay: 0s;}svg#freepik_stories-environmental-audit.animated #freepik--Drops--inject-32 {animation: 1s 1 forwards cubic-bezier(.36,-0.01,.5,1.38) fadeIn;animation-delay: 0s;}svg#freepik_stories-environmental-audit.animated #freepik--Icon--inject-32 {animation: 1s 1 forwards cubic-bezier(.36,-0.01,.5,1.38) zoomIn;animation-delay: 0s;}svg#freepik_stories-environmental-audit.animated #freepik--tree-1--inject-32 {animation: 1s 1 forwards cubic-bezier(.36,-0.01,.5,1.38) lightSpeedRight;animation-delay: 0s;}svg#freepik_stories-environmental-audit.animated #freepik--Chart--inject-32 {animation: 1s 1 forwards cubic-bezier(.36,-0.01,.5,1.38) slideRight;animation-delay: 0s;}svg#freepik_stories-environmental-audit.animated #freepik--magnifying-glass--inject-32 {animation: 1s 1 forwards cubic-bezier(.36,-0.01,.5,1.38) lightSpeedLeft;animation-delay: 0s;}svg#freepik_stories-environmental-audit.animated #freepik--Character--inject-32 {animation: 1s 1 forwards cubic-bezier(.36,-0.01,.5,1.38) fadeIn;animation-delay: 0s;}            @keyframes slideUp {                0% {                    opacity: 0;                    transform: translateY(30px);                }                100% {                    opacity: 1;                    transform: inherit;                }            }                    @keyframes heartbeat {                0% {                    transform: scale(1);                }                10% {                    transform: scale(1.1);                }                30% {                    transform: scale(1);                }                40% {                    transform: scale(1);                }                50% {                    transform: scale(1.1);                }                60% {                    transform: scale(1);                }                100% {                    transform: scale(1);                }            }                    @keyframes zoomIn {                0% {                    opacity: 0;                    transform: scale(0.5);                }                100% {                    opacity: 1;                    transform: scale(1);                }            }                    @keyframes lightSpeedLeft {              from {                transform: translate3d(-50%, 0, 0) skewX(20deg);                opacity: 0;              }              60% {                transform: skewX(-10deg);                opacity: 1;              }              80% {                transform: skewX(2deg);              }              to {                opacity: 1;                transform: translate3d(0, 0, 0);              }            }                    @keyframes slideLeft {                0% {                    opacity: 0;                    transform: translateX(-30px);                }                100% {                    opacity: 1;                    transform: translateX(0);                }            }                    @keyframes fadeIn {                0% {                    opacity: 0;                }                100% {                    opacity: 1;                }            }                    @keyframes lightSpeedRight {              from {                transform: translate3d(50%, 0, 0) skewX(-20deg);                opacity: 0;              }              60% {                transform: skewX(10deg);                opacity: 1;              }              80% {                transform: skewX(-2deg);              }              to {                opacity: 1;                transform: translate3d(0, 0, 0);              }            }                    @keyframes slideRight {                0% {                    opacity: 0;                    transform: translateX(30px);                }                100% {                    opacity: 1;                    transform: translateX(0);                }            }        </style><g id="freepik--Floor--inject-32" class="animable animator-active" style="transform-origin: 377.84px 481.19px;"><path d="M729.26,481.69H26.42a.5.5,0,0,1,0-1H729.26a.5.5,0,0,1,0,1Z" style="fill: rgb(38, 50, 56); transform-origin: 377.84px 481.19px;" id="elci50blhtfl" class="animable"></path></g><g id="freepik--City--inject-32" class="animable" style="transform-origin: 377.5px 344.86px;"><path d="M727,387.86H691a.5.5,0,0,1-.5-.5v-38.5h-8v25.5a.5.5,0,0,1-.5.5H670a.5.5,0,0,1-.5-.5v-18.5H658a.5.5,0,0,1-.5-.5v-17.5H639v36.5a.5.5,0,0,1-.5.5h-27a.5.5,0,0,1-.5-.5v-26.5h-3.55v11.79a.5.5,0,0,1-.5.5H590.52a.5.5,0,0,1-.5-.5V311.86H573v16.5a.5.5,0,0,1-.5.5H561v16.5a.5.5,0,0,1-.5.5h-21a.5.5,0,0,1-.5-.5v-13.5H519v20.5a.5.5,0,0,1-.5.5h-27a.5.5,0,0,1-.5-.5v-35.5h-51.5v32.5a.5.5,0,0,1-.5.5H409a.5.5,0,0,1-.5-.5v-24.5H375v42.5a.5.5,0,0,1-.5.5h-54a.5.5,0,0,1-.5-.5v-64.5H280.5v30.5a.5.5,0,0,1-.5.5H263.5a.5.5,0,0,1-.5-.5v-21.5H244.31v52.5a.5.5,0,0,1-.5.5H211a.5.5,0,0,1-.5-.5v-23.5h-32v24.5a.5.5,0,0,1-.5.5h-40.5a.5.5,0,0,1-.5-.5v-18.5H93v20.5a.5.5,0,0,1-.5.5H73a.5.5,0,0,1-.5-.5v-11.5H54v31.5a.5.5,0,0,1-.5.5H28a.5.5,0,0,1,0-1H53v-31.5a.5.5,0,0,1,.5-.5H73a.5.5,0,0,1,.5.5v11.5H92v-20.5a.5.5,0,0,1,.5-.5h45a.5.5,0,0,1,.5.5v18.5h39.5v-24.5a.5.5,0,0,1,.5-.5h33a.5.5,0,0,1,.5.5v23.5h31.82v-52.5a.5.5,0,0,1,.5-.5H263.5a.5.5,0,0,1,.5.5v21.5h15.5v-30.5a.5.5,0,0,1,.5-.5h40.5a.5.5,0,0,1,.5.5v64.5h53v-42.5a.5.5,0,0,1,.5-.5H409a.5.5,0,0,1,.5.5v24.5h29v-32.5a.5.5,0,0,1,.5-.5h52.5a.5.5,0,0,1,.5.5v35.5h26v-20.5a.5.5,0,0,1,.5-.5h21a.5.5,0,0,1,.5.5v13.5h20v-16.5a.5.5,0,0,1,.5-.5H572v-16.5a.5.5,0,0,1,.5-.5h18a.5.5,0,0,1,.5.5v47.79h15.45V347.36a.5.5,0,0,1,.5-.5h4.55a.5.5,0,0,1,.5.5v26.5h26v-36.5a.5.5,0,0,1,.5-.5H658a.5.5,0,0,1,.5.5v17.5H670a.5.5,0,0,1,.5.5v18.5h11v-25.5a.5.5,0,0,1,.5-.5h9a.5.5,0,0,1,.5.5v38.5H727a.5.5,0,0,1,0,1Z" style="fill: rgb(38, 50, 56); transform-origin: 377.5px 344.86px;" id="el863d20qq54e" class="animable"></path></g><g id="freepik--Factory--inject-32" class="animable" style="transform-origin: 480.235px 312.11px;"><polygon points="464.76 317.61 464.76 266.25 384.13 266.25 384.13 317.61 327.4 317.61 327.4 481.19 384.13 481.19 464.76 481.19 521.5 481.19 521.5 317.61 464.76 317.61" style="fill: rgb(38, 50, 56); transform-origin: 424.45px 373.72px;" id="elhgl790hp70s" class="animable"></polygon><path d="M521.5,481.69H327.4a.5.5,0,0,1-.5-.5V317.61a.5.5,0,0,1,.5-.5h56.23V266.25a.51.51,0,0,1,.5-.5h80.63a.5.5,0,0,1,.5.5v50.86H521.5a.51.51,0,0,1,.5.5V481.19A.5.5,0,0,1,521.5,481.69Zm-193.6-1H521V318.11H464.76a.5.5,0,0,1-.5-.5V266.75H384.63v50.86a.5.5,0,0,1-.5.5H327.9Z" style="fill: rgb(38, 50, 56); transform-origin: 424.45px 373.72px;" id="elvqwmcl2ujvk" class="animable"></path><polygon points="430.73 144.49 416.69 144.49 409.66 319.32 437.75 319.32 430.73 144.49" style="fill: rgb(146, 227, 169); transform-origin: 423.705px 231.905px;" id="elhtd5voh1dwd" class="animable"></polygon><path d="M438.27,319.82H409.14L416.21,144h15l0,.48Zm-28.09-1h27.05l-7-173.83H417.17Z" style="fill: rgb(38, 50, 56); transform-origin: 423.705px 231.91px;" id="el4fczn4ebvbb" class="animable"></path><path d="M430.64,146H416.78a1.51,1.51,0,0,1-1.51-1.51h0a1.51,1.51,0,0,1,1.51-1.51h13.86a1.52,1.52,0,0,1,1.51,1.51h0A1.52,1.52,0,0,1,430.64,146Z" style="fill: rgb(255, 255, 255); transform-origin: 423.71px 144.49px;" id="ele2vfwyv09mv" class="animable"></path><path d="M430.64,146.53H416.78a2,2,0,1,1,0-4h13.86a2,2,0,0,1,0,4Zm-13.86-3a1,1,0,1,0,0,2h13.86a1,1,0,0,0,0-2Z" style="fill: rgb(38, 50, 56); transform-origin: 423.71px 144.53px;" id="el36keuqdpz6z" class="animable"></path><polygon points="416.36 152.52 416.11 158.82 431.31 158.82 431.05 152.52 416.36 152.52" style="fill: rgb(255, 255, 255); transform-origin: 423.71px 155.67px;" id="elmxc7l3mbwt" class="animable"></polygon><path d="M431.83,159.32H415.59l.29-7.3h15.65Zm-15.2-1h14.15l-.21-5.3H416.84Z" style="fill: rgb(38, 50, 56); transform-origin: 423.71px 155.67px;" id="elcaqmxxru12c" class="animable"></path><polygon points="436.78 295.24 436.53 288.94 410.88 288.94 410.63 295.24 436.78 295.24" style="fill: rgb(255, 255, 255); transform-origin: 423.705px 292.09px;" id="elvd98wfcb2om" class="animable"></polygon><path d="M437.3,295.74H410.11l.29-7.3H437Zm-26.15-1h25.11l-.21-5.3H411.36Z" style="fill: rgb(38, 50, 56); transform-origin: 423.705px 292.09px;" id="el9dp6l04nxyg" class="animable"></path><polygon points="412.45 249.96 412.2 256.26 435.22 256.26 434.96 249.96 412.45 249.96" style="fill: rgb(255, 255, 255); transform-origin: 423.71px 253.11px;" id="el8dhl82n0fs9" class="animable"></polygon><path d="M435.74,256.76H411.68l.29-7.3h23.48Zm-23-1h22l-.22-5.3H412.93Z" style="fill: rgb(38, 50, 56); transform-origin: 423.71px 253.11px;" id="elchw18r8trjr" class="animable"></path><polygon points="411.67 269.45 411.41 275.75 436 275.75 435.75 269.45 411.67 269.45" style="fill: rgb(255, 255, 255); transform-origin: 423.705px 272.6px;" id="elxj4w0jdtlsi" class="animable"></polygon><path d="M436.52,276.25H410.89l.3-7.3h25Zm-24.59-1h23.55l-.21-5.3H412.15Z" style="fill: rgb(38, 50, 56); transform-origin: 423.705px 272.6px;" id="elxxw84v1vtj" class="animable"></path><polygon points="413.23 230.47 412.98 236.78 434.44 236.78 434.18 230.47 413.23 230.47" style="fill: rgb(255, 255, 255); transform-origin: 423.71px 233.625px;" id="elkhvbh6dt2io" class="animable"></polygon><path d="M435,237.28h-22.5l.29-7.31h21.91Zm-21.46-1h20.42L433.7,231h-20Z" style="fill: rgb(38, 50, 56); transform-origin: 423.75px 233.625px;" id="elsdwy3eppinh" class="animable"></path><polygon points="415.58 172 415.33 178.31 432.09 178.31 431.83 172 415.58 172" style="fill: rgb(255, 255, 255); transform-origin: 423.71px 175.155px;" id="elhu86lbg84f" class="animable"></polygon><path d="M432.61,178.81h-17.8l.29-7.3h17.21Zm-16.76-1h15.72l-.22-5.3H416.06Z" style="fill: rgb(38, 50, 56); transform-origin: 423.71px 175.16px;" id="elsfirlvw91f" class="animable"></path><polygon points="414.01 210.98 413.76 217.29 433.65 217.29 433.4 210.98 414.01 210.98" style="fill: rgb(255, 255, 255); transform-origin: 423.705px 214.135px;" id="elhh97ral6zzu" class="animable"></polygon><path d="M434.17,217.79H413.24l.29-7.31h20.35Zm-19.89-1h18.85l-.21-5.31H414.5Z" style="fill: rgb(38, 50, 56); transform-origin: 423.705px 214.135px;" id="ely4a2gqvs6fq" class="animable"></path><polygon points="414.8 191.49 414.55 197.8 432.87 197.8 432.62 191.49 414.8 191.49" style="fill: rgb(255, 255, 255); transform-origin: 423.71px 194.645px;" id="elnxehyrl8jes" class="animable"></polygon><path d="M433.39,198.3H414l.3-7.31H433.1Zm-18.32-1h17.28l-.21-5.31H415.28Z" style="fill: rgb(38, 50, 56); transform-origin: 423.695px 194.645px;" id="elzyg7nya91fh" class="animable"></path><polygon points="545.39 317.61 545.39 266.25 464.76 266.25 464.76 317.61 408.03 317.61 408.03 481.19 464.76 481.19 545.39 481.19 602.12 481.19 602.12 317.61 545.39 317.61" style="fill: rgb(146, 227, 169); transform-origin: 505.075px 373.72px;" id="el1c9203cf7pu" class="animable"></polygon><path d="M602.12,481.69H408a.5.5,0,0,1-.5-.5V317.61a.5.5,0,0,1,.5-.5h56.23V266.25a.5.5,0,0,1,.5-.5h80.63a.5.5,0,0,1,.5.5v50.86h56.23a.5.5,0,0,1,.5.5V481.19A.5.5,0,0,1,602.12,481.69Zm-193.59-1H601.62V318.11H545.39a.5.5,0,0,1-.5-.5V266.75H465.26v50.86a.5.5,0,0,1-.5.5H408.53Z" style="fill: rgb(38, 50, 56); transform-origin: 505.045px 373.72px;" id="ellwrhfz8qacf" class="animable"></path><path d="M449,390.12H427.4V355.65a10.78,10.78,0,0,1,10.78-10.77h0A10.77,10.77,0,0,1,449,355.65Z" style="fill: rgb(38, 50, 56); transform-origin: 438.2px 367.5px;" id="elfhzumvr7del" class="animable"></path><path d="M449,390.62H427.4a.5.5,0,0,1-.5-.5V355.65a11.28,11.28,0,0,1,22.55,0v34.47A.5.5,0,0,1,449,390.62Zm-21.05-1h20.55v-34a10.28,10.28,0,0,0-20.55,0Z" style="fill: rgb(38, 50, 56); transform-origin: 438.175px 367.663px;" id="elvu12lp3ybhl" class="animable"></path><path d="M484.17,390.12H462.62V355.65a10.77,10.77,0,0,1,10.77-10.77h0a10.78,10.78,0,0,1,10.78,10.77Z" style="fill: rgb(38, 50, 56); transform-origin: 473.395px 367.5px;" id="elkwvpbr5l2ur" class="animable"></path><path d="M484.17,390.62H462.62a.5.5,0,0,1-.5-.5V355.65a11.28,11.28,0,0,1,22.55,0v34.47A.5.5,0,0,1,484.17,390.62Zm-21.05-1h20.55v-34a10.28,10.28,0,0,0-20.55,0Z" style="fill: rgb(38, 50, 56); transform-origin: 473.395px 367.663px;" id="elc3z5wl7gdkk" class="animable"></path><path d="M508.61,344.88h0a10.78,10.78,0,0,1,10.78,10.78v34.47a0,0,0,0,1,0,0H497.84a0,0,0,0,1,0,0V355.65A10.78,10.78,0,0,1,508.61,344.88Z" style="fill: rgb(38, 50, 56); transform-origin: 508.615px 367.505px;" id="elxpeswuyle4" class="animable"></path><path d="M519.39,390.62H497.84a.5.5,0,0,1-.5-.5V355.65a11.28,11.28,0,0,1,22.55,0v34.47A.5.5,0,0,1,519.39,390.62Zm-21.05-1h20.55v-34a10.28,10.28,0,0,0-20.55,0Z" style="fill: rgb(38, 50, 56); transform-origin: 508.615px 367.663px;" id="elexhff5rp8z4" class="animable"></path><path d="M554.6,390.12H533.05V355.65a10.78,10.78,0,0,1,10.78-10.77h0a10.77,10.77,0,0,1,10.77,10.77Z" style="fill: rgb(38, 50, 56); transform-origin: 543.825px 367.5px;" id="elnpg0c82v01l" class="animable"></path><path d="M554.6,390.62H533.05a.5.5,0,0,1-.5-.5V355.65a11.28,11.28,0,0,1,22.55,0v34.47A.5.5,0,0,1,554.6,390.62Zm-21.05-1H554.1v-34a10.28,10.28,0,0,0-20.55,0Z" style="fill: rgb(38, 50, 56); transform-origin: 543.825px 367.663px;" id="el1iyhw27eqnv" class="animable"></path><path d="M589.82,390.12H568.27V355.65A10.77,10.77,0,0,1,579,344.88h0a10.78,10.78,0,0,1,10.78,10.77Z" style="fill: rgb(38, 50, 56); transform-origin: 579.045px 367.5px;" id="elxlunxnbbwi8" class="animable"></path><path d="M589.82,390.62H568.27a.5.5,0,0,1-.5-.5V355.65a11.28,11.28,0,0,1,22.55,0v34.47A.5.5,0,0,1,589.82,390.62Zm-21.05-1h20.55v-34a10.28,10.28,0,0,0-20.55,0Z" style="fill: rgb(38, 50, 56); transform-origin: 579.045px 367.663px;" id="el54enawojdjs" class="animable"></path><path d="M484.17,470.17H462.62V435.7a10.78,10.78,0,0,1,10.77-10.78h0a10.78,10.78,0,0,1,10.78,10.78Z" style="fill: rgb(38, 50, 56); transform-origin: 473.395px 447.545px;" id="elwam3gnbt7om" class="animable"></path><path d="M484.17,470.67H462.62a.5.5,0,0,1-.5-.5V435.7a11.28,11.28,0,1,1,22.55,0v34.47A.5.5,0,0,1,484.17,470.67Zm-21.05-1h20.55v-34a10.28,10.28,0,1,0-20.55,0Z" style="fill: rgb(38, 50, 56); transform-origin: 473.395px 447.377px;" id="eld24fwyekwaw" class="animable"></path><rect x="421.6" y="413.9" width="31.14" height="67.29" style="fill: rgb(38, 50, 56); transform-origin: 437.17px 447.545px;" id="elw5zscgk794" class="animable"></rect><path d="M452.75,481.69H421.6a.5.5,0,0,1-.5-.5V413.9a.5.5,0,0,1,.5-.5h31.15a.51.51,0,0,1,.5.5v67.29A.5.5,0,0,1,452.75,481.69Zm-30.65-1h30.15V414.4H422.1Z" style="fill: rgb(38, 50, 56); transform-origin: 437.175px 447.545px;" id="elibcwg57221" class="animable"></path><rect x="327.4" y="317.61" width="80.63" height="163.58" style="fill: rgb(38, 50, 56); transform-origin: 367.715px 399.4px;" id="elu3pr8hce6up" class="animable"></rect><path d="M408,481.69H327.4a.5.5,0,0,1-.5-.5V317.61a.5.5,0,0,1,.5-.5H408a.51.51,0,0,1,.5.5V481.19A.5.5,0,0,1,408,481.69Zm-80.13-1h79.63V318.11H327.9Z" style="fill: rgb(38, 50, 56); transform-origin: 367.7px 399.4px;" id="elucpeqpxb8g" class="animable"></path><path d="M537.37,470.17H515.82V435.7a10.78,10.78,0,0,1,10.77-10.78h0a10.78,10.78,0,0,1,10.78,10.78Z" style="fill: rgb(38, 50, 56); transform-origin: 526.595px 447.545px;" id="elcyj8tiyv6zu" class="animable"></path><path d="M537.37,470.67H515.82a.5.5,0,0,1-.5-.5V435.7a11.28,11.28,0,1,1,22.55,0v34.47A.51.51,0,0,1,537.37,470.67Zm-21-1h20.55v-34a10.28,10.28,0,1,0-20.55,0Z" style="fill: rgb(38, 50, 56); transform-origin: 526.595px 447.377px;" id="el2c5qxu9qj9v" class="animable"></path><path d="M561.81,424.92h0a10.78,10.78,0,0,1,10.78,10.78v34.47a0,0,0,0,1,0,0H551a0,0,0,0,1,0,0V435.7A10.78,10.78,0,0,1,561.81,424.92Z" style="fill: rgb(255, 255, 255); transform-origin: 561.795px 447.545px;" id="elr9j41ig4hd" class="animable"></path><path d="M572.58,470.67H551a.51.51,0,0,1-.5-.5V435.7a11.28,11.28,0,1,1,22.55,0v34.47A.5.5,0,0,1,572.58,470.67Zm-21.05-1h20.55v-34a10.28,10.28,0,1,0-20.55,0Z" style="fill: rgb(38, 50, 56); transform-origin: 561.775px 447.377px;" id="eldywd8ogagzj" class="animable"></path><path d="M607.8,470.17H586.25V435.7A10.78,10.78,0,0,1,597,424.92h0A10.78,10.78,0,0,1,607.8,435.7Z" style="fill: rgb(255, 255, 255); transform-origin: 597.025px 447.545px;" id="eluota8bum6hj" class="animable"></path><path d="M607.8,470.67H586.25a.5.5,0,0,1-.5-.5V435.7a11.28,11.28,0,1,1,22.55,0v34.47A.5.5,0,0,1,607.8,470.67Zm-21-1H607.3v-34a10.28,10.28,0,1,0-20.55,0Z" style="fill: rgb(38, 50, 56); transform-origin: 597.025px 447.377px;" id="elfdaxqubyhfa" class="animable"></path><rect x="524.83" y="430.14" width="86.49" height="51.05" style="fill: rgb(38, 50, 56); transform-origin: 568.075px 455.665px;" id="elup1ik1i1vr" class="animable"></rect><path d="M611.32,481.69H524.83a.5.5,0,0,1-.5-.5V430.14a.5.5,0,0,1,.5-.5h86.49a.5.5,0,0,1,.5.5v51.05A.5.5,0,0,1,611.32,481.69Zm-86-1h85.49V430.64H525.33Z" style="fill: rgb(38, 50, 56); transform-origin: 568.075px 455.665px;" id="elah7edbos9ja" class="animable"></path><polygon points="609.49 418.46 631.72 431.44 627.45 431.44 605.36 420.4 609.49 418.46" style="fill: rgb(255, 255, 255); transform-origin: 618.54px 424.95px;" id="ela7vnpioorrg" class="animable"></polygon><path d="M633.57,432h-6.24l-23.12-11.56,5.31-2.49Zm-6-1h2.32L609.47,419l-3,1.4Z" style="fill: rgb(38, 50, 56); transform-origin: 618.89px 424.975px;" id="els05l03q3gce" class="animable"></path><polygon points="629.39 481.19 588.34 481.19 588.34 430.14 609.49 418.46 629.39 430.14 629.39 481.19" style="fill: rgb(146, 227, 169); transform-origin: 608.865px 449.825px;" id="elfd1qs7p24sl" class="animable"></polygon><path d="M629.39,481.69h-41a.5.5,0,0,1-.5-.5V430.14a.47.47,0,0,1,.25-.43L609.25,418a.52.52,0,0,1,.5,0l19.89,11.68a.52.52,0,0,1,.25.43v51.05A.5.5,0,0,1,629.39,481.69Zm-40.55-1h40V430.43L609.49,419l-20.65,11.4Z" style="fill: rgb(38, 50, 56); transform-origin: 608.89px 449.813px;" id="elqmazstczx1n" class="animable"></path><polygon points="521.67 432.04 585.18 432.04 609.49 418.46 545.73 418.46 521.67 432.04" style="fill: rgb(143, 143, 143); transform-origin: 565.58px 425.25px;" id="elpnol94hdchn" class="animable"></polygon><path d="M585.18,432.54H521.67a.5.5,0,0,1-.49-.37.52.52,0,0,1,.24-.57L545.49,418a.5.5,0,0,1,.24-.06h63.76a.5.5,0,0,1,.49.37.52.52,0,0,1-.24.57l-24.32,13.58A.5.5,0,0,1,585.18,432.54Zm-61.61-1h61.48L607.57,419h-61.7Z" style="fill: rgb(38, 50, 56); transform-origin: 565.58px 425.24px;" id="elylrlkj2e28g" class="animable"></path><rect x="606.02" y="426.04" width="6.63" height="6" style="fill: rgb(38, 50, 56); transform-origin: 609.335px 429.04px;" id="elr9vx5i5e84" class="animable"></rect><path d="M613.15,432.54h-7.63v-7h7.63Zm-6.63-1h5.63v-5h-5.63Z" style="fill: rgb(38, 50, 56); transform-origin: 609.335px 429.04px;" id="elxsqn3kyh23" class="animable"></path><rect x="563.37" y="444.07" width="14.85" height="37.12" style="fill: rgb(143, 143, 143); transform-origin: 570.795px 462.63px;" id="elu311o7t8p3d" class="animable"></rect><path d="M578.22,481.69H563.37a.5.5,0,0,1-.5-.5V444.07a.5.5,0,0,1,.5-.5h14.85a.5.5,0,0,1,.5.5v37.12A.5.5,0,0,1,578.22,481.69Zm-14.35-1h13.85V444.57H563.87Z" style="fill: rgb(38, 50, 56); transform-origin: 570.795px 462.63px;" id="el5g13jn8z5do" class="animable"></path><rect x="534.83" y="444.07" width="14.85" height="37.12" style="fill: rgb(143, 143, 143); transform-origin: 542.255px 462.63px;" id="eldpefqd9dz2m" class="animable"></rect><path d="M549.68,481.69H534.83a.5.5,0,0,1-.5-.5V444.07a.5.5,0,0,1,.5-.5h14.85a.5.5,0,0,1,.5.5v37.12A.5.5,0,0,1,549.68,481.69Zm-14.35-1h13.85V444.57H535.33Z" style="fill: rgb(38, 50, 56); transform-origin: 542.255px 462.63px;" id="eldyrkja6gf5o" class="animable"></path><rect x="472.65" y="275.27" width="13.92" height="20.88" style="fill: rgb(38, 50, 56); transform-origin: 479.61px 285.71px;" id="elyraj1he3jif" class="animable"></rect><path d="M486.57,296.65H472.65a.5.5,0,0,1-.5-.5V275.27a.5.5,0,0,1,.5-.5h13.92a.5.5,0,0,1,.5.5v20.88A.5.5,0,0,1,486.57,296.65Zm-13.42-1h12.92V275.77H473.15Z" style="fill: rgb(38, 50, 56); transform-origin: 479.61px 285.71px;" id="elvllir0col8p" class="animable"></path><rect x="491.79" y="305.43" width="9.85" height="14.78" style="fill: rgb(38, 50, 56); transform-origin: 496.715px 312.82px;" id="elh084smf1lot" class="animable"></rect><path d="M501.64,320.71h-9.85a.5.5,0,0,1-.5-.5V305.43a.5.5,0,0,1,.5-.5h9.85a.5.5,0,0,1,.5.5v14.78A.5.5,0,0,1,501.64,320.71Zm-9.35-1h8.85V305.93h-8.85Z" style="fill: rgb(38, 50, 56); transform-origin: 496.715px 312.82px;" id="el3sdb1ck8ul9" class="animable"></path><rect x="523.41" y="305.43" width="9.85" height="14.78" style="fill: rgb(38, 50, 56); transform-origin: 528.335px 312.82px;" id="elznal5h0q0yg" class="animable"></rect><path d="M533.26,320.71h-9.85a.5.5,0,0,1-.5-.5V305.43a.5.5,0,0,1,.5-.5h9.85a.5.5,0,0,1,.5.5v14.78A.5.5,0,0,1,533.26,320.71Zm-9.35-1h8.85V305.93h-8.85Z" style="fill: rgb(38, 50, 56); transform-origin: 528.335px 312.82px;" id="el2ugaqxzrcuo" class="animable"></path><path d="M362.77,390.12H341.22V355.65A10.77,10.77,0,0,1,352,344.88h0a10.77,10.77,0,0,1,10.78,10.77Z" style="fill: rgb(255, 255, 255); transform-origin: 352px 367.5px;" id="eln8ataxnee8f" class="animable"></path><path d="M362.77,390.62H341.22a.5.5,0,0,1-.5-.5V355.65a11.28,11.28,0,0,1,22.55,0v34.47A.5.5,0,0,1,362.77,390.62Zm-21-1h20.55v-34a10.28,10.28,0,0,0-20.55,0Z" style="fill: rgb(38, 50, 56); transform-origin: 351.995px 367.663px;" id="elhrivru04aau" class="animable"></path><path d="M401.05,390.12H379.5V355.65a10.78,10.78,0,0,1,10.78-10.77h0a10.77,10.77,0,0,1,10.77,10.77Z" style="fill: rgb(255, 255, 255); transform-origin: 390.275px 367.5px;" id="elc2tlwj653ve" class="animable"></path><path d="M401.05,390.62H379.5a.5.5,0,0,1-.5-.5V355.65a11.28,11.28,0,0,1,22.55,0v34.47A.5.5,0,0,1,401.05,390.62Zm-21.05-1h20.55v-34a10.28,10.28,0,0,0-20.55,0Z" style="fill: rgb(38, 50, 56); transform-origin: 390.275px 367.663px;" id="eli0ryjfoxrh" class="animable"></path><path d="M362.77,470.17H341.22V435.7A10.78,10.78,0,0,1,352,424.92h0a10.78,10.78,0,0,1,10.78,10.78Z" style="fill: rgb(255, 255, 255); transform-origin: 352px 447.545px;" id="eljb0j2irs0ao" class="animable"></path><path d="M362.77,470.67H341.22a.5.5,0,0,1-.5-.5V435.7a11.28,11.28,0,1,1,22.55,0v34.47A.5.5,0,0,1,362.77,470.67Zm-21-1h20.55v-34a10.28,10.28,0,1,0-20.55,0Z" style="fill: rgb(38, 50, 56); transform-origin: 351.995px 447.377px;" id="elgesivjnfo8g" class="animable"></path><path d="M401.05,470.17H379.5V435.7a10.78,10.78,0,0,1,10.78-10.78h0a10.78,10.78,0,0,1,10.77,10.78Z" style="fill: rgb(255, 255, 255); transform-origin: 390.275px 447.545px;" id="elpcdiavxb0hg" class="animable"></path><path d="M401.05,470.67H379.5a.51.51,0,0,1-.5-.5V435.7a11.28,11.28,0,1,1,22.55,0v34.47A.5.5,0,0,1,401.05,470.67Zm-21.05-1h20.55v-34a10.28,10.28,0,1,0-20.55,0Z" style="fill: rgb(38, 50, 56); transform-origin: 390.275px 447.377px;" id="elrfc6f8g37k" class="animable"></path></g><g id="freepik--trees-2--inject-32" class="animable" style="transform-origin: 465.9px 366.065px;"><path d="M325.56,368.88c0,26.59-15.73,48.13-35.12,48.13s-35.13-21.54-35.13-48.13S271,250.94,290.44,250.94,325.56,342.3,325.56,368.88Z" style="fill: rgb(146, 227, 169); transform-origin: 290.435px 333.975px;" id="elfetcer6claa" class="animable"></path><polygon points="310.13 382.79 299.49 386.73 301.63 380.32 296.54 387.82 291.47 389.69 291.11 368.67 309.58 344.12 299.68 354.03 301.35 347.14 296.62 357.09 291 362.7 290.44 329.86 288.42 377.76 270.91 359.21 280.53 372.28 271.46 371.27 282.67 375.18 288.21 382.73 287.24 405.82 280.79 401.44 287.04 410.6 284.08 481.19 293.05 481.19 291.52 393.05 310.13 382.79" style="fill: rgb(38, 50, 56); transform-origin: 290.52px 405.525px;" id="elvac332b6x5a" class="animable"></polygon><path d="M309.76,330a7.63,7.63,0,0,1-6.39,8.58,7.64,7.64,0,0,1,6.39-8.58Z" style="fill: rgb(255, 255, 255); transform-origin: 306.566px 334.29px;" id="elavtq53ldivf" class="animable"></path><path d="M320.34,344.84a7.63,7.63,0,0,1-6.38,8.57,7.63,7.63,0,0,1,6.38-8.57Z" style="fill: rgb(255, 255, 255); transform-origin: 317.15px 349.125px;" id="elu30dit7httm" class="animable"></path><path d="M320.34,373.79a7.62,7.62,0,0,1-8.9,5.93,7.64,7.64,0,0,1,8.9-5.93Z" style="fill: rgb(255, 255, 255); transform-origin: 315.89px 376.757px;" id="elbmy1qqx18kn" class="animable"></path><path d="M262.2,373.79a7.62,7.62,0,0,0,8.9,5.93,7.63,7.63,0,0,0-8.9-5.93Z" style="fill: rgb(255, 255, 255); transform-origin: 266.65px 376.756px;" id="elnswtep35q2" class="animable"></path><path d="M308.11,361.77a7.63,7.63,0,0,1-6.38,8.58,7.62,7.62,0,0,1,6.38-8.58Z" style="fill: rgb(255, 255, 255); transform-origin: 304.919px 366.06px;" id="elblmqzwgjmn" class="animable"></path><path d="M305.37,313.78a7.63,7.63,0,0,1-6.39,8.58,7.64,7.64,0,0,1,6.39-8.58Z" style="fill: rgb(255, 255, 255); transform-origin: 302.176px 318.07px;" id="elwnwlgwmlwnj" class="animable"></path><path d="M299.06,326.12a7.63,7.63,0,0,1-6.38,8.58,7.62,7.62,0,0,1,6.38-8.58Z" style="fill: rgb(255, 255, 255); transform-origin: 295.869px 330.41px;" id="el4x82kn2on9l" class="animable"></path><path d="M314,317.14a7.64,7.64,0,0,1-6.39,8.58,7.63,7.63,0,0,1,6.39-8.58Z" style="fill: rgb(255, 255, 255); transform-origin: 310.804px 321.43px;" id="el553bqpta25n" class="animable"></path><path d="M265.38,317.14a7.64,7.64,0,0,0,6.39,8.58,7.63,7.63,0,0,0-6.39-8.58Z" style="fill: rgb(255, 255, 255); transform-origin: 268.576px 321.43px;" id="elbyd3qmqkf3q" class="animable"></path><path d="M306.74,298.7a7.63,7.63,0,0,1-6.39,8.58,7.63,7.63,0,0,1,6.39-8.58Z" style="fill: rgb(255, 255, 255); transform-origin: 303.545px 302.99px;" id="elbwxa000sp17" class="animable"></path><path d="M303.64,282.68a7.64,7.64,0,0,1-4,9.91,7.64,7.64,0,0,1,4-9.91Z" style="fill: rgb(255, 255, 255); transform-origin: 301.64px 287.635px;" id="el888bnlz61rf" class="animable"></path><path d="M281.43,278.49a7.64,7.64,0,0,1,3.65,10.06,7.64,7.64,0,0,1-3.65-10.06Z" style="fill: rgb(255, 255, 255); transform-origin: 283.255px 283.52px;" id="elgaqvac59zsu" class="animable"></path><path d="M291.79,297.65a7.62,7.62,0,0,1-.62,10.68,7.64,7.64,0,0,1,.62-10.68Z" style="fill: rgb(255, 255, 255); transform-origin: 291.484px 302.99px;" id="eleu53e8l6dfh" class="animable"></path><path d="M291.24,269.13a7.63,7.63,0,0,1-.61,10.68,7.63,7.63,0,0,1,.61-10.68Z" style="fill: rgb(255, 255, 255); transform-origin: 290.935px 274.47px;" id="eli233yx8xeeq" class="animable"></path><path d="M268,330a7.63,7.63,0,0,0,6.39,8.58A7.64,7.64,0,0,0,268,330Z" style="fill: rgb(255, 255, 255); transform-origin: 271.194px 334.29px;" id="ela7naq5gpwbc" class="animable"></path><path d="M262,347.51a7.63,7.63,0,0,0,6.39,8.58,7.64,7.64,0,0,0-6.39-8.58Z" style="fill: rgb(255, 255, 255); transform-origin: 265.194px 351.8px;" id="el5ldec6fbt9v" class="animable"></path><path d="M278,353.89a7.63,7.63,0,0,0,6.38,8.57,7.63,7.63,0,0,0-6.38-8.57Z" style="fill: rgb(255, 255, 255); transform-origin: 281.19px 358.175px;" id="el6k41zfe3sqj" class="animable"></path><path d="M282.36,329.57A7.62,7.62,0,0,0,286,339.62a7.64,7.64,0,0,0-3.66-10.05Z" style="fill: rgb(255, 255, 255); transform-origin: 284.175px 334.595px;" id="elv7rpt90h6td" class="animable"></path><path d="M271,394.28a7.63,7.63,0,0,0,8-7.07,7.63,7.63,0,0,0-8,7.07Z" style="fill: rgb(255, 255, 255); transform-origin: 275px 390.745px;" id="eljjiturn5epj" class="animable"></path><path d="M302.13,390.73a7.63,7.63,0,0,0,9.09,5.64,7.63,7.63,0,0,0-9.09-5.64Z" style="fill: rgb(255, 255, 255); transform-origin: 306.675px 393.55px;" id="el1d919k5g5uw" class="animable"></path><path d="M274.63,313.78a7.63,7.63,0,0,0,6.39,8.58,7.64,7.64,0,0,0-6.39-8.58Z" style="fill: rgb(255, 255, 255); transform-origin: 277.824px 318.07px;" id="eldjym1lsru57" class="animable"></path><path d="M274.58,299.52A7.63,7.63,0,0,0,281,308.1a7.65,7.65,0,0,0-6.38-8.58Z" style="fill: rgb(255, 255, 255); transform-origin: 277.789px 303.81px;" id="ellj57u7y62m" class="animable"></path><path d="M373.7,408.3c0,17.25-10.2,31.24-22.79,31.24s-22.8-14-22.8-31.24,10.21-76.55,22.8-76.55S373.7,391.05,373.7,408.3Z" style="fill: rgb(146, 227, 169); transform-origin: 350.905px 385.645px;" id="elerlirisuc0f" class="animable"></path><polygon points="363.69 417.32 356.79 419.88 358.17 415.72 354.87 420.59 351.58 421.8 351.34 408.16 363.33 392.23 356.91 398.65 358 394.19 354.92 400.64 351.28 404.29 350.91 382.97 349.6 414.06 338.24 402.02 344.48 410.5 338.59 409.85 345.87 412.38 349.47 417.28 348.84 432.27 344.65 429.43 348.71 435.37 346.78 481.19 352.6 481.19 351.62 423.98 363.69 417.32" style="fill: rgb(38, 50, 56); transform-origin: 350.965px 432.08px;" id="elcp99ioqynpw" class="animable"></polygon><path d="M363.45,383a4.93,4.93,0,0,1-4.15,5.56,5,5,0,0,1,4.15-5.56Z" style="fill: rgb(255, 255, 255); transform-origin: 361.379px 385.78px;" id="el10bbitn1km2a" class="animable"></path><path d="M370.32,392.69a4.95,4.95,0,0,1-4.15,5.57,5,5,0,0,1,4.15-5.57Z" style="fill: rgb(255, 255, 255); transform-origin: 368.248px 395.475px;" id="elbffg7glzko" class="animable"></path><path d="M370.32,411.49a4.95,4.95,0,0,1-5.78,3.84,5.83,5.83,0,0,1,2.1-3.1A5.77,5.77,0,0,1,370.32,411.49Z" style="fill: rgb(255, 255, 255); transform-origin: 367.43px 413.429px;" id="el6kna7h6olh7" class="animable"></path><path d="M332.58,411.49a5,5,0,0,0,5.78,3.84,4.95,4.95,0,0,0-5.78-3.84Z" style="fill: rgb(255, 255, 255); transform-origin: 335.47px 413.406px;" id="elpkuzem9kn6s" class="animable"></path><path d="M362.38,403.68a4.94,4.94,0,0,1-4.14,5.57,5,5,0,0,1,4.14-5.57Z" style="fill: rgb(255, 255, 255); transform-origin: 360.314px 406.465px;" id="el16f84j2u6sd" class="animable"></path><path d="M360.6,372.54a4.94,4.94,0,0,1-4.14,5.56,4.94,4.94,0,0,1,4.14-5.56Z" style="fill: rgb(255, 255, 255); transform-origin: 358.53px 375.32px;" id="eloxt860ltqt" class="animable"></path><path d="M356.51,380.54a5,5,0,0,1-4.15,5.57,5,5,0,0,1,4.15-5.57Z" style="fill: rgb(255, 255, 255); transform-origin: 354.435px 383.325px;" id="el5ty5004gxn2" class="animable"></path><path d="M366.23,374.71a5,5,0,0,1-4.15,5.57,4.95,4.95,0,0,1,4.15-5.57Z" style="fill: rgb(255, 255, 255); transform-origin: 364.152px 377.495px;" id="eld1o12vvgnt" class="animable"></path><path d="M334.65,374.71a5,5,0,0,0,4.14,5.57,5,5,0,0,0-4.14-5.57Z" style="fill: rgb(255, 255, 255); transform-origin: 336.72px 377.495px;" id="elyym29dhwxdh" class="animable"></path><path d="M361.49,362.75a4.94,4.94,0,0,1-4.14,5.56,5.84,5.84,0,0,1,.93-3.63A5.76,5.76,0,0,1,361.49,362.75Z" style="fill: rgb(255, 255, 255); transform-origin: 359.435px 365.53px;" id="ellr8fxb65rxg" class="animable"></path><path d="M359.48,352.35a5,5,0,0,1-2.61,6.43,5,5,0,0,1,2.61-6.43Z" style="fill: rgb(255, 255, 255); transform-origin: 358.175px 355.565px;" id="elgque0e9cqmb" class="animable"></path><path d="M345.06,349.63a5,5,0,0,1,2.37,6.53,5,5,0,0,1-2.37-6.53Z" style="fill: rgb(255, 255, 255); transform-origin: 346.245px 352.895px;" id="elja2r8a8mfp" class="animable"></path><path d="M351.79,362.06a4.95,4.95,0,0,1-.4,6.93,4.95,4.95,0,0,1,.4-6.93Z" style="fill: rgb(255, 255, 255); transform-origin: 351.59px 365.525px;" id="el4hbnsdgdhw8" class="animable"></path><path d="M351.43,343.55a4.95,4.95,0,0,1-.4,6.93,4.95,4.95,0,0,1,.4-6.93Z" style="fill: rgb(255, 255, 255); transform-origin: 351.23px 347.015px;" id="ell29p6pi2oud" class="animable"></path><path d="M336.34,383a5,5,0,0,0,4.15,5.56,4.93,4.93,0,0,0-4.15-5.56Z" style="fill: rgb(255, 255, 255); transform-origin: 338.419px 385.78px;" id="el1c6zy73aijf" class="animable"></path><path d="M332.43,394.43a5,5,0,0,0,4.14,5.57,4.94,4.94,0,0,0-4.14-5.57Z" style="fill: rgb(255, 255, 255); transform-origin: 334.504px 397.215px;" id="el0jdj8w8js17" class="animable"></path><path d="M342.82,398.56a5,5,0,0,0,4.15,5.57,5,5,0,0,0-4.15-5.57Z" style="fill: rgb(255, 255, 255); transform-origin: 344.895px 401.345px;" id="eluv2nngev0w" class="animable"></path><path d="M345.66,382.78A5,5,0,0,0,348,389.3a4.93,4.93,0,0,0-2.38-6.52Z" style="fill: rgb(255, 255, 255); transform-origin: 346.837px 386.04px;" id="elk5d95r9j5y" class="animable"></path><path d="M338.3,424.78a4.94,4.94,0,0,0,5.21-4.59,5,5,0,0,0-5.21,4.59Z" style="fill: rgb(255, 255, 255); transform-origin: 340.905px 422.486px;" id="elxxqx6xrfhde" class="animable"></path><path d="M358.5,422.48a5,5,0,0,0,5.9,3.66,4.94,4.94,0,0,0-5.9-3.66Z" style="fill: rgb(255, 255, 255); transform-origin: 361.45px 424.304px;" id="elesfkhmsci2p" class="animable"></path><path d="M340.65,372.54a5,5,0,0,0,4.15,5.56,5,5,0,0,0-4.15-5.56Z" style="fill: rgb(255, 255, 255); transform-origin: 342.725px 375.32px;" id="elofvtskessqe" class="animable"></path><path d="M340.62,363.28a5,5,0,0,0,4.14,5.57,5,5,0,0,0-4.14-5.57Z" style="fill: rgb(255, 255, 255); transform-origin: 342.69px 366.065px;" id="elsxq2botv58l" class="animable"></path><path d="M676.49,408.3c0,17.25-10.21,31.24-22.8,31.24s-22.79-14-22.79-31.24,10.2-76.55,22.79-76.55S676.49,391.05,676.49,408.3Z" style="fill: rgb(146, 227, 169); transform-origin: 653.695px 385.645px;" id="elvfbamfej2s" class="animable"></path><polygon points="666.48 417.32 659.57 419.88 660.96 415.72 657.66 420.59 654.36 421.8 654.13 408.16 666.12 392.23 659.69 398.65 660.78 394.19 657.71 400.64 654.06 404.29 653.7 382.97 652.39 414.06 641.02 402.02 647.27 410.5 641.38 409.85 648.65 412.38 652.25 417.28 651.62 432.27 647.43 429.43 651.49 435.37 649.57 481.19 655.39 481.19 654.4 423.98 666.48 417.32" style="fill: rgb(38, 50, 56); transform-origin: 653.75px 432.08px;" id="elnuygwpp3cmk" class="animable"></polygon><path d="M666.24,383a5,5,0,0,1-4.15,5.56,4.93,4.93,0,0,1,4.15-5.56Z" style="fill: rgb(255, 255, 255); transform-origin: 664.161px 385.78px;" id="elai9fd2sxplm" class="animable"></path><path d="M673.11,392.69a5,5,0,0,1-4.15,5.57,4.95,4.95,0,0,1,4.15-5.57Z" style="fill: rgb(255, 255, 255); transform-origin: 671.032px 395.475px;" id="ela3b9skw8ryt" class="animable"></path><path d="M673.1,411.49a4.95,4.95,0,0,1-5.77,3.84,4.95,4.95,0,0,1,5.77-3.84Z" style="fill: rgb(255, 255, 255); transform-origin: 670.215px 413.41px;" id="elbeufezhbstd" class="animable"></path><path d="M635.37,411.49a4.95,4.95,0,0,0,5.78,3.84,5.83,5.83,0,0,0-2.1-3.1A5.77,5.77,0,0,0,635.37,411.49Z" style="fill: rgb(255, 255, 255); transform-origin: 638.26px 413.429px;" id="eliw69xyf682a" class="animable"></path><path d="M665.17,403.68a5,5,0,0,1-4.15,5.57,5,5,0,0,1,4.15-5.57Z" style="fill: rgb(255, 255, 255); transform-origin: 663.095px 406.465px;" id="ell1mialpwvtq" class="animable"></path><path d="M663.39,372.54a5,5,0,0,1-4.15,5.56,5,5,0,0,1,4.15-5.56Z" style="fill: rgb(255, 255, 255); transform-origin: 661.315px 375.32px;" id="el4632lfdxfu" class="animable"></path><path d="M659.29,380.54a4.94,4.94,0,0,1-4.14,5.57,5,5,0,0,1,4.14-5.57Z" style="fill: rgb(255, 255, 255); transform-origin: 657.224px 383.325px;" id="eldgq6b31bkc" class="animable"></path><path d="M669,374.71a5,5,0,0,1-4.14,5.57,5,5,0,0,1,4.14-5.57Z" style="fill: rgb(255, 255, 255); transform-origin: 666.93px 377.495px;" id="eli54s96xg50k" class="animable"></path><path d="M637.43,374.71a5,5,0,0,0,4.15,5.57,5,5,0,0,0-4.15-5.57Z" style="fill: rgb(255, 255, 255); transform-origin: 639.505px 377.495px;" id="elelfes0b8k6h" class="animable"></path><path d="M664.28,362.75a5,5,0,0,1-4.15,5.56,5,5,0,0,1,4.15-5.56Z" style="fill: rgb(255, 255, 255); transform-origin: 662.205px 365.53px;" id="el6bbqzpbduha" class="animable"></path><path d="M662.27,352.35a5.78,5.78,0,0,1,0,3.75,5.84,5.84,0,0,1-2.62,2.68,4.94,4.94,0,0,1,2.62-6.43Z" style="fill: rgb(255, 255, 255); transform-origin: 660.929px 355.565px;" id="el010hu7p3dnvf" class="animable"></path><path d="M647.85,349.63a5,5,0,0,1,2.37,6.53,5,5,0,0,1-2.37-6.53Z" style="fill: rgb(255, 255, 255); transform-origin: 649.035px 352.895px;" id="elcoivt2ye08f" class="animable"></path><path d="M654.57,362.06a4.95,4.95,0,0,1-.4,6.93,5,5,0,0,1,.4-6.93Z" style="fill: rgb(255, 255, 255); transform-origin: 654.38px 365.525px;" id="elq8mudhf38mh" class="animable"></path><path d="M654.22,343.55a4.95,4.95,0,0,1-.4,6.93,4.95,4.95,0,0,1,.4-6.93Z" style="fill: rgb(255, 255, 255); transform-origin: 654.02px 347.015px;" id="elg2zn1h0hf6l" class="animable"></path><path d="M639.13,383a4.93,4.93,0,0,0,4.15,5.56,5,5,0,0,0-4.15-5.56Z" style="fill: rgb(255, 255, 255); transform-origin: 641.201px 385.78px;" id="ely84uw5mube9" class="animable"></path><path d="M635.21,394.43a5,5,0,0,0,4.15,5.57,4.93,4.93,0,0,0-4.15-5.57Z" style="fill: rgb(255, 255, 255); transform-origin: 637.289px 397.215px;" id="ellkttj480q4o" class="animable"></path><path d="M645.61,398.56a4.94,4.94,0,0,0,4.14,5.57,5,5,0,0,0-4.14-5.57Z" style="fill: rgb(255, 255, 255); transform-origin: 647.676px 401.345px;" id="el7r0yqfdwdoi" class="animable"></path><path d="M648.45,382.78a4.93,4.93,0,0,0,2.38,6.52,5,5,0,0,0-2.38-6.52Z" style="fill: rgb(255, 255, 255); transform-origin: 649.629px 386.04px;" id="eloaqxg257yjo" class="animable"></path><path d="M641.09,424.78a5,5,0,0,0,5.21-4.59,5,5,0,0,0-5.21,4.59Z" style="fill: rgb(255, 255, 255); transform-origin: 643.695px 422.485px;" id="el4rpk4zyhoiy" class="animable"></path><path d="M661.28,422.48a5.85,5.85,0,0,0,2.21,3,5.75,5.75,0,0,0,3.69.63,4.94,4.94,0,0,0-5.9-3.66Z" style="fill: rgb(255, 255, 255); transform-origin: 664.23px 424.256px;" id="elohgoacc2bfn" class="animable"></path><path d="M643.44,372.54a4.94,4.94,0,0,0,4.14,5.56,4.94,4.94,0,0,0-4.14-5.56Z" style="fill: rgb(255, 255, 255); transform-origin: 645.51px 375.32px;" id="ellbe1c1r8chb" class="animable"></path><path d="M643.4,363.28a5,5,0,0,0,4.15,5.57,5,5,0,0,0-4.15-5.57Z" style="fill: rgb(255, 255, 255); transform-origin: 645.475px 366.065px;" id="elwyb0tmk966n" class="animable"></path></g><g id="freepik--Clouds--inject-32" class="animable" style="transform-origin: 586.865px 123.171px;"><path d="M681.81,73.76H547.21a.5.5,0,0,1-.35-.85c.77-.78,2.85-3.06,3.16-4.3.45-1.79,6.14-2.3,8.63-2.43a9.4,9.4,0,0,0,5.79-5.44C565.8,57,572,56.4,576.5,56a33.8,33.8,0,0,0,3.53-.47,8.79,8.79,0,0,0,3.5-1.72.5.5,0,0,1,.7.09.5.5,0,0,1-.08.7,10,10,0,0,1-3.9,1.91,34.77,34.77,0,0,1-3.65.48c-4.25.43-10.08,1-11.22,4.14a10.28,10.28,0,0,1-6.51,6.08h-.11c-4,.21-7.6,1-7.77,1.68a12,12,0,0,1-2.61,3.91H681.53c.69-1.23,3.41-7.07-2.93-12.71-3-2.66-7.31-2-11.11-1.48-4.11.6-8,1.17-8.85-2.92a.5.5,0,0,1,1-.21c.63,3,3.22,2.8,7.72,2.14,4-.59,8.58-1.25,11.93,1.72,7.64,6.8,3,14.16,3,14.23A.5.5,0,0,1,681.81,73.76Z" style="fill: rgb(38, 50, 56); transform-origin: 615.201px 63.7366px;" id="elnxhw8rj4t" class="animable"></path><path d="M587.38,50.75a.48.48,0,0,1-.28-.08A.5.5,0,0,1,587,50a31.34,31.34,0,0,0,3-5.71,9.1,9.1,0,0,1,5.57-5.42c4.09-1.41,9.67-.31,15.72,3.11,3.77,2.14,6.39,2.83,8.24,2.18,2.2-.78,3.27-3.46,4.63-6.87a16,16,0,0,1,8.7-8.37,17.91,17.91,0,0,1,14.19.28c6.55,2.77,9.8,10.1,11.37,15.76a.5.5,0,1,1-1,.27c-1.51-5.45-4.61-12.49-10.8-15.11a16.9,16.9,0,0,0-13.42-.27,15.13,15.13,0,0,0-8.15,7.81c-1.39,3.5-2.6,6.52-5.23,7.44-2.14.75-5,0-9.06-2.25-5.8-3.27-11.09-4.35-14.9-3a8.08,8.08,0,0,0-5,4.85,33.46,33.46,0,0,1-3.1,5.9A.51.51,0,0,1,587.38,50.75Z" style="fill: rgb(38, 50, 56); transform-origin: 622.676px 39.1706px;" id="ely2qbvxxqctr" class="animable"></path><path d="M541.19,126.43H494.44a.5.5,0,0,1-.5-.5.5.5,0,0,1,.5-.5h46.45c.47-.89,1.79-4.17-1.78-7.35-1.74-1.55-4.3-1.17-6.56-.84-2,.28-3.8.55-4.86-.51-.76-.76-1-2-.7-4-.09-.82-1.28-10.24-7.16-12.72a9.94,9.94,0,0,0-9.85.88.5.5,0,0,1-.7-.12.49.49,0,0,1,.12-.69,10.93,10.93,0,0,1,10.82-1c6.67,2.82,7.73,13.17,7.77,13.6v.12c-.24,1.63-.11,2.71.4,3.22.71.71,2.24.49,4,.23,2.36-.34,5.28-.77,7.37,1.09,4.75,4.22,1.86,8.81,1.84,8.86A.52.52,0,0,1,541.19,126.43Z" style="fill: rgb(38, 50, 56); transform-origin: 518.214px 112.262px;" id="elgjesyr3t944" class="animable"></path><path d="M487.11,126.43H459.77a.5.5,0,0,1-.46-.31.51.51,0,0,1,.11-.55,8.57,8.57,0,0,0,1.86-2.5c.28-1.11,3.06-1.5,5.38-1.62a5.52,5.52,0,0,0,3.35-3.16c.86-2.37,4.67-2.75,7.46-3a19.65,19.65,0,0,0,2.11-.28c2.22-.49,4.3-2.86,5.87-6.67a5.78,5.78,0,0,1,3.49-3.39c2.52-.87,6-.2,9.67,1.9,2.2,1.24,3.78,1.67,4.82,1.3,1.24-.44,1.88-2,2.68-4a.51.51,0,0,1,.65-.28.5.5,0,0,1,.28.65c-.86,2.16-1.61,4-3.28,4.61-1.35.48-3.15,0-5.64-1.37-3.46-2-6.61-2.6-8.85-1.82a4.71,4.71,0,0,0-2.89,2.82c-2.18,5.28-4.78,6.87-6.58,7.27a21,21,0,0,1-2.23.29c-2.52.26-6,.6-6.62,2.38a6.43,6.43,0,0,1-4.07,3.8h-.11c-2.17.12-4.29.54-4.53.9a6.42,6.42,0,0,1-1.33,2.09h26.2a.5.5,0,0,1,.5.5A.51.51,0,0,1,487.11,126.43Z" style="fill: rgb(38, 50, 56); transform-origin: 483.174px 115.134px;" id="elpnaln7cuh5q" class="animable"></path><path d="M713.17,218.75H691.09a.51.51,0,0,1-.5-.5.5.5,0,0,1,.5-.5h21.79c.46-.89,1.79-4.17-1.78-7.34-1.75-1.55-4.31-1.18-6.57-.85-1.95.28-3.8.55-4.86-.51-.75-.76-1-2-.7-4-.09-.82-1.27-10.23-7.15-12.72a10.08,10.08,0,0,0-8-.17,9,9,0,0,0-4.82,4.62c-.86,2.16-1.61,4-3.28,4.61-1.35.48-3.15,0-5.65-1.37-3.45-1.95-6.6-2.6-8.85-1.82a4.74,4.74,0,0,0-2.89,2.82c-2.17,5.28-4.77,6.87-6.57,7.27a21.2,21.2,0,0,1-2.24.29c-2.52.26-6,.6-6.62,2.38a6.43,6.43,0,0,1-4.07,3.8h-.1c-2.17.12-4.29.54-4.54.9a6.21,6.21,0,0,1-1.32,2.09h50.86a.5.5,0,0,1,.5.5.5.5,0,0,1-.5.5h-52a.5.5,0,0,1-.46-.31.47.47,0,0,1,.11-.54,8.78,8.78,0,0,0,1.86-2.51c.27-1.11,3.06-1.49,5.37-1.62a5.47,5.47,0,0,0,3.36-3.16c.86-2.37,4.67-2.75,7.45-3a20.26,20.26,0,0,0,2.12-.28c2.21-.49,4.3-2.86,5.87-6.67a5.79,5.79,0,0,1,3.48-3.39c2.53-.87,6-.2,9.68,1.9,2.2,1.24,3.77,1.67,4.82,1.3,1.24-.44,1.88-2,2.68-4a9.84,9.84,0,0,1,5.37-5.17,11,11,0,0,1,8.73.17c6.68,2.82,7.73,13.17,7.78,13.61a.49.49,0,0,1,0,.12c-.24,1.62-.1,2.7.41,3.21.71.71,2.24.49,4,.23,2.35-.34,5.28-.77,7.37,1.09,4.75,4.22,1.86,8.81,1.83,8.86A.5.5,0,0,1,713.17,218.75Z" style="fill: rgb(38, 50, 56); transform-origin: 672.843px 204.615px;" id="elc7rw5blfhck" class="animable"></path></g><g id="freepik--speech-bubble--inject-32" class="animable" style="transform-origin: 285.905px 127.995px;"><path d="M432.75,231.61H155.8a13.94,13.94,0,0,1-14.08-13.77V203.67l-16.11,5.58a.51.51,0,0,1-.58-.2.48.48,0,0,1,0-.61l16.64-18.13V38.15A13.94,13.94,0,0,1,155.8,24.38h277a14,14,0,0,1,14.09,13.77V217.84A14,14,0,0,1,432.75,231.61ZM142.22,202.46a.53.53,0,0,1,.29.1.49.49,0,0,1,.21.4v14.88a12.94,12.94,0,0,0,13.08,12.77h277a13,13,0,0,0,13.09-12.77V38.15a13,13,0,0,0-13.09-12.77H155.8a12.94,12.94,0,0,0-13.08,12.77V190.51a.47.47,0,0,1-.14.33l-15.43,16.81,14.9-5.16A.51.51,0,0,1,142.22,202.46Z" style="fill: rgb(38, 50, 56); transform-origin: 285.905px 127.995px;" id="elw2bzxbciwj" class="animable"></path></g><g id="freepik--Drops--inject-32" class="animable" style="transform-origin: 315.715px 216.35px;"><path d="M337.2,228a14.61,14.61,0,0,1-29.22-.58c.16-8.06,15.15-27.49,15.15-27.49S337.35,219.89,337.2,228Z" style="fill: rgb(146, 227, 169); transform-origin: 322.589px 221.126px;" id="elx1uvpvz5rop" class="animable"></path><path d="M322.59,242.78h-.3a15.13,15.13,0,0,1-14.81-15.41c.16-8.13,14.64-27,15.26-27.79a.54.54,0,0,1,.4-.19.49.49,0,0,1,.4.21c.59.82,14.32,20.23,14.16,28.37h0A15.14,15.14,0,0,1,322.59,242.78Zm.53-42c-2.41,3.19-14.5,19.59-14.64,26.65a14.11,14.11,0,1,0,28.22.56C336.83,220.88,325.4,204,323.12,200.74ZM337.2,228h0Z" style="fill: rgb(38, 50, 56); transform-origin: 322.589px 221.085px;" id="elepb5zl7alnl" class="animable"></path><path d="M316.84,212.11a11.31,11.31,0,1,1-22.61-.44c.12-6.25,11.73-21.29,11.73-21.29S317,205.87,316.84,212.11Z" style="fill: rgb(146, 227, 169); transform-origin: 305.531px 206.917px;" id="els1lelulmkzo" class="animable"></path><path d="M305.54,223.7h-.23a11.8,11.8,0,0,1-11.58-12c.12-6.34,11.35-21,11.83-21.58a.6.6,0,0,1,.41-.2.53.53,0,0,1,.4.21c.45.64,11.1,15.69,11,22h0a11.81,11.81,0,0,1-11.8,11.58Zm.4-32.47c-2.06,2.75-11.11,15.1-11.21,20.45a10.81,10.81,0,1,0,21.61.42C316.45,206.75,307.89,194.05,305.94,191.23Zm10.9,20.88h0Z" style="fill: rgb(38, 50, 56); transform-origin: 305.549px 206.815px;" id="elibe232zth6c" class="animable"></path><path d="M333.87,225.5c-.05,2.76-1.62,5-3.5,4.93s-3.36-2.3-3.31-5.06,1.62-5,3.5-4.93S333.92,222.75,333.87,225.5Z" style="fill: rgb(255, 255, 255); transform-origin: 330.465px 225.435px;" id="eliptaa6698o" class="animable"></path><path d="M312.77,211.52c0,2.28-1.34,4.11-2.9,4.08s-2.78-1.91-2.74-4.19,1.35-4.11,2.9-4.08S312.82,209.24,312.77,211.52Z" style="fill: rgb(255, 255, 255); transform-origin: 309.95px 211.465px;" id="elb4z1kjg4eee" class="animable"></path></g><g id="freepik--Icon--inject-32" class="animable" style="transform-origin: 360.075px 173.776px;"><g id="freepik--LdiMUf--inject-32" class="animable" style="transform-origin: 360.075px 173.776px;"><path d="M357.09,197.32h-.75l-12.9,0a6.51,6.51,0,0,1-6-3.38c-1.39-2.39-2.74-4.79-4.11-7.19,0-.06,0-.13,0-.1,7.7,0,15.42.07,23.14.08.53,0,.74.12.73.7,0,3.12,0,6.24-.05,9.36A5,5,0,0,1,357.09,197.32Z" style="fill: rgb(146, 227, 169); transform-origin: 345.265px 191.985px;" id="elrak71kob5al" class="animable"></path><path d="M357.09,197.82h0l-4.5,0-9.16,0a7,7,0,0,1-6.39-3.63c-1-1.73-2-3.48-3-5.22l-1.12-2a.58.58,0,0,1,0-.64.47.47,0,0,1,.48-.21l4.12,0q9.47,0,19,.06a1.27,1.27,0,0,1,.94.3,1.24,1.24,0,0,1,.29.91c0,2.17,0,4.35,0,6.53v2.82a3.29,3.29,0,0,1,0,.42l0,.22A.5.5,0,0,1,357.09,197.82ZM334.16,187.1l.76,1.33c1,1.74,2,3.48,3,5.21a6,6,0,0,0,5.53,3.13l9.16,0,4,0v-2.91c0-2.18,0-4.36,0-6.54,0-.1,0-.16,0-.19h-.22q-9.48,0-19-.06Z" style="fill: rgb(38, 50, 56); transform-origin: 345.29px 191.98px;" id="el3rqdbma1yqp" class="animable"></path><path d="M368.46,183c0,1.35,0,2.52,0,3.75l.84.05c2.87,0,5.75,0,8.62,0a1,1,0,0,1,1,.59c1,1.76,2,3.48,3,5.23,1.37,2.45,0,4.84-2.85,4.82l-9.89,0h-.74c0,1.23,0,2.42,0,3.6l-.16.08-9.17-9Z" style="fill: rgb(146, 227, 169); transform-origin: 370.783px 192.06px;" id="el3vr2fjnoco" class="animable"></path><path d="M368.27,201.55a.52.52,0,0,1-.35-.14l-9.17-9a.48.48,0,0,1-.15-.36.47.47,0,0,1,.15-.35l9.37-9.08a.49.49,0,0,1,.54-.1.51.51,0,0,1,.3.46v3.28l.34,0h1.78c2.28,0,4.56,0,6.84,0h0a1.52,1.52,0,0,1,1.48.85c.56,1,1.13,2,1.7,3,.43.74.85,1.47,1.26,2.22a3.55,3.55,0,0,1-3.26,5.56h0l-10.14,0V201a.49.49,0,0,1-.28.45l-.16.08A.54.54,0,0,1,368.27,201.55ZM359.81,192l8.13,8v-2.65a.5.5,0,0,1,.5-.5h0l10.63,0a2.75,2.75,0,0,0,2.57-1.24,2.81,2.81,0,0,0-.16-2.83c-.41-.74-.83-1.48-1.25-2.21-.58-1-1.16-2-1.72-3a.52.52,0,0,0-.61-.34c-2.28,0-4.56,0-6.85,0h-1.77l-.57,0-.3,0a.5.5,0,0,1-.47-.5v-2.57Z" style="fill: rgb(38, 50, 56); transform-origin: 370.798px 192.018px;" id="el35v498yjkoi" class="animable"></path><path d="M346.69,166.12c1.06,4.22,2.1,8.35,3.17,12.64l-3.26-1.88c-.14.21-.28.4-.39.6-1.47,2.52-2.95,5-4.39,7.56a1,1,0,0,1-1.05.61c-2-.05-3.92-.1-5.87,0a3.16,3.16,0,0,1-2.85-5c1.75-2.78,3.33-5.68,5-8.52l.34-.61-3.26-1.92Z" style="fill: rgb(146, 227, 169); transform-origin: 340.655px 175.892px;" id="el548cj24g84" class="animable"></path><path d="M340.82,186.15h-.5c-1.77,0-3.61-.08-5.4,0a3.72,3.72,0,0,1-3.47-1.79,3.78,3.78,0,0,1,.17-4c1.23-1.95,2.39-4,3.51-5.94.49-.86,1-1.72,1.48-2.57a1.62,1.62,0,0,1,.1-.18L333.86,170a.5.5,0,0,1,.12-.91l12.58-3.47a.49.49,0,0,1,.61.36l3.18,12.64a.51.51,0,0,1-.74.56l-2.86-1.65a1.74,1.74,0,0,0-.11.18l-.88,1.51c-1.17,2-2.35,4-3.51,6A1.49,1.49,0,0,1,340.82,186.15ZM337,185.09c1.11,0,2.22,0,3.3,0h.44a.55.55,0,0,0,.6-.36c1.16-2,2.34-4,3.52-6.06l.87-1.5c.09-.15.19-.29.29-.44l.12-.18a.51.51,0,0,1,.67-.16l2.24,1.29-2.76-11-10.94,3,2.24,1.32a.5.5,0,0,1,.18.67l-.12.22c-.07.14-.14.27-.22.4L336,174.93c-1.13,2-2.3,4-3.53,6a2.66,2.66,0,0,0,2.41,4.22C335.6,185.1,336.32,185.09,337,185.09Z" style="fill: rgb(38, 50, 56); transform-origin: 340.66px 175.881px;" id="eljxv29qfrea" class="animable"></path><path d="M343.08,161.77l2.53-4.34c1.48-2.53,2.95-5.08,4.44-7.61a6.48,6.48,0,0,1,6-3.37l7.68,0h.59c-4,6.89-8,13.73-12.05,20.63Z" style="fill: rgb(146, 227, 169); transform-origin: 353.7px 156.761px;" id="elngaxjyw5c5s" class="animable"></path><path d="M352.24,167.61a.47.47,0,0,1-.25-.07l-9.16-5.34a.49.49,0,0,1-.18-.68l3.72-6.39c1.08-1.85,2.16-3.71,3.25-5.56A7,7,0,0,1,356,146h0l5.29,0h3a.52.52,0,0,1,.43.25.5.5,0,0,1,0,.5l-12,20.63A.51.51,0,0,1,352.24,167.61Zm-8.47-6,8.3,4.84L363.42,147h-2.11L356,147h0a6,6,0,0,0-5.53,3.13q-1.64,2.78-3.25,5.55Z" style="fill: rgb(38, 50, 56); transform-origin: 353.683px 156.804px;" id="elp71ed2ul08l" class="animable"></path><path d="M375.32,157.57l3.28-1.87-3.27,12.62-12.54-3.57,3.28-1.9-1.76-3.1c-1-1.76-2-3.52-3-5.27a.78.78,0,0,1,0-.91c1-1.77,2-3.55,3.1-5.3,1.45-2.42,4.2-2.39,5.6,0q2.44,4.26,4.87,8.52C375,157.07,375.14,157.29,375.32,157.57Z" style="fill: rgb(146, 227, 169); transform-origin: 369.882px 157.393px;" id="elotmp69yok1d" class="animable"></path><path d="M375.33,168.82a.32.32,0,0,1-.14,0l-12.54-3.57a.5.5,0,0,1-.36-.42.48.48,0,0,1,.25-.49l2.85-1.66-2.18-3.83q-1.17-2.06-2.35-4.1a1.25,1.25,0,0,1,0-1.42l1.26-2.17c.61-1,1.22-2.1,1.84-3.13a3.81,3.81,0,0,1,3.22-2h0a3.82,3.82,0,0,1,3.21,2.1q1.59,2.76,3.16,5.52l1.71,3,.19.31,2.86-1.63a.5.5,0,0,1,.55,0,.51.51,0,0,1,.18.53l-3.27,12.62a.49.49,0,0,1-.24.31A.5.5,0,0,1,375.33,168.82Zm-11.27-4.23L375,167.7l2.85-11L375.56,158a.5.5,0,0,1-.67-.17l-.16-.26c-.11-.17-.2-.32-.29-.48l-1.72-3-3.15-5.51a2.57,2.57,0,0,0-4.74,0c-.62,1-1.23,2.08-1.83,3.12-.42.73-.84,1.46-1.27,2.18a.31.31,0,0,0,0,.41c.8,1.36,1.58,2.73,2.36,4.1l2.43,4.27a.51.51,0,0,1-.19.68Z" style="fill: rgb(38, 50, 56); transform-origin: 369.848px 157.429px;" id="el04mld7feqa4q" class="animable"></path><path d="M371.69,172.64l9.17-5.25c.14.22.27.39.38.58q3.22,5.64,6.46,11.29a6.48,6.48,0,0,1,0,6.91c-1.32,2.29-2.66,4.58-4,6.86-.08.13-.18.25-.23.32C379.58,186.46,375.65,179.58,371.69,172.64Z" style="fill: rgb(146, 227, 169); transform-origin: 380.194px 180.37px;" id="els8s1qz04zs" class="animable"></path><path d="M383.52,193.81h0a.5.5,0,0,1-.42-.22l-11.82-20.7a.52.52,0,0,1,.19-.69l9.17-5.24a.5.5,0,0,1,.67.16l.13.19c.1.15.18.27.26.41L388.13,179a7,7,0,0,1,0,7.41c-1.11,1.92-2.23,3.83-3.35,5.75l-.65,1.12-.21.3A.6.6,0,0,1,383.52,193.81Zm-11.15-21,11.16,19.56.42-.71,3.34-5.75a6,6,0,0,0,0-6.41l-6.47-11.29a.86.86,0,0,0-.1-.16Z" style="fill: rgb(38, 50, 56); transform-origin: 380.205px 180.351px;" id="el324bjeh6ur" class="animable"></path></g></g><g id="freepik--tree-1--inject-32" class="animable" style="transform-origin: 355.4px 86.295px;"><path d="M355.4,35.44c-21.33,0-38.6,16.45-38.6,36.7v.31A19.82,19.82,0,0,0,337.07,92a29,29,0,0,1,5.36.34,13.4,13.4,0,0,1,8.39,5.2,5.61,5.61,0,0,0,4.38,2.24h.4A5.61,5.61,0,0,0,360,97.58a13.4,13.4,0,0,1,8.39-5.2,29,29,0,0,1,5.36-.34A19.82,19.82,0,0,0,394,72.45v-.31C394,51.89,376.72,35.48,355.4,35.44Z" style="fill: rgb(146, 227, 169); transform-origin: 355.4px 67.61px;" id="elnf02c3rqtqi" class="animable"></path><polygon points="368.75 80.55 360.21 82.39 370.4 69.7 356.49 82.67 356.4 83.57 355.78 69.94 354.8 91.47 341.08 78.68 351.27 91.38 342.73 89.53 353.52 94.19 354.61 95.54 352.71 137.15 358.85 137.15 356.56 86.95 357.96 85.2 368.75 80.55" style="fill: rgb(38, 50, 56); transform-origin: 355.74px 103.425px;" id="elcldhhs6nvxm" class="animable"></polygon><path d="M343.92,69.4s-1.29-3.67-4-5a22.82,22.82,0,0,0-4.58-1.65S336.77,70.32,343.92,69.4Z" style="fill: rgb(38, 50, 56); transform-origin: 339.63px 66.1138px;" id="elq4g74yh8n5r" class="animable"></path><path d="M347.24,59.66s-.22-3.88-2.5-5.88a22.26,22.26,0,0,0-3.94-2.86S340.11,58.54,347.24,59.66Z" style="fill: rgb(38, 50, 56); transform-origin: 344.011px 55.29px;" id="elycii2abfo8l" class="animable"></path><path d="M377.78,89.35s-2.46-3-5.48-3.27a22,22,0,0,0-4.87,0S371.38,92.66,377.78,89.35Z" style="fill: rgb(38, 50, 56); transform-origin: 372.605px 88.1129px;" id="elrojvlg21or9" class="animable"></path><path d="M329.79,88.43s2.45-3,5.48-3.27a22.83,22.83,0,0,1,4.87,0S336.19,91.74,329.79,88.43Z" style="fill: rgb(38, 50, 56); transform-origin: 334.965px 87.1954px;" id="elb5xgestre6l" class="animable"></path><path d="M336.42,56.36s-.21-3.88-2.49-5.88A22.7,22.7,0,0,0,330,47.62S329.3,55.25,336.42,56.36Z" style="fill: rgb(38, 50, 56); transform-origin: 333.201px 51.99px;" id="eleojhyn6g7t" class="animable"></path><path d="M372.35,58.56s.21-3.88,2.49-5.88a22.26,22.26,0,0,1,3.94-2.86S379.47,57.45,372.35,58.56Z" style="fill: rgb(38, 50, 56); transform-origin: 375.574px 54.19px;" id="elyolrvuviaf8" class="animable"></path><path d="M354.46,53.57s2.24-3.18,1.69-6.16a22.41,22.41,0,0,0-1.32-4.69S349.56,48.28,354.46,53.57Z" style="fill: rgb(38, 50, 56); transform-origin: 354.306px 48.145px;" id="el4xy0nlkl1c8" class="animable"></path><path d="M357,68.17s.36-3.87-1.6-6.18a22.33,22.33,0,0,0-3.48-3.41S350.08,66,357,68.17Z" style="fill: rgb(38, 50, 56); transform-origin: 354.362px 63.375px;" id="elykeazv31tj" class="animable"></path><path d="M347.73,50.5s1.16-3.7-.28-6.37a22.67,22.67,0,0,0-2.69-4.06S341.45,47,347.73,50.5Z" style="fill: rgb(38, 50, 56); transform-origin: 346.03px 45.285px;" id="elog4elgk1n5h" class="animable"></path><path d="M350.66,79.28s1.16-3.71-.28-6.38a22.67,22.67,0,0,0-2.69-4.06S344.38,75.75,350.66,79.28Z" style="fill: rgb(38, 50, 56); transform-origin: 348.96px 74.06px;" id="elpaytrriv5ia" class="animable"></path><path d="M359.35,74.93s3.28-2.08,3.91-5.05a22.37,22.37,0,0,0,.57-4.84S356.84,68.17,359.35,74.93Z" style="fill: rgb(38, 50, 56); transform-origin: 361.318px 69.985px;" id="elije1nzwqufg" class="animable"></path><path d="M359.74,50.5s-1.16-3.7.28-6.37a22.67,22.67,0,0,1,2.69-4.06S366,47,359.74,50.5Z" style="fill: rgb(38, 50, 56); transform-origin: 361.436px 45.285px;" id="elytrc0erfx5f" class="animable"></path><path d="M364.31,59.82s3.28-2.09,3.89-5.06a22.16,22.16,0,0,0,.55-4.84S361.78,53.08,364.31,59.82Z" style="fill: rgb(38, 50, 56); transform-origin: 366.253px 54.87px;" id="ellx7ge63txxs" class="animable"></path><path d="M373.14,70s3.76-1,5.27-3.61a22.83,22.83,0,0,0,2-4.42S372.82,62.77,373.14,70Z" style="fill: rgb(38, 50, 56); transform-origin: 376.77px 65.985px;" id="el1l6r9ubk6ky" class="animable"></path><path d="M374,79s3.53,1.63,6.36.54a22.53,22.53,0,0,0,4.38-2.14S378.3,73.26,374,79Z" style="fill: rgb(38, 50, 56); transform-origin: 379.37px 77.9357px;" id="eljc0z0tcd9k" class="animable"></path><path d="M378.93,70.79s3.53,1.63,6.36.54a22.21,22.21,0,0,0,4.37-2.14S383.24,65,378.93,70.79Z" style="fill: rgb(38, 50, 56); transform-origin: 384.295px 69.715px;" id="el3qk7t80be6a" class="animable"></path><path d="M329.56,76.06s2.37,3.08,5.38,3.43a22.25,22.25,0,0,0,4.87.13S336.06,73,329.56,76.06Z" style="fill: rgb(38, 50, 56); transform-origin: 334.685px 77.4744px;" id="elufrekbfsv8c" class="animable"></path><path d="M321.86,65.43s2.37,3.08,5.38,3.43a22.25,22.25,0,0,0,4.87.13S328.36,62.31,321.86,65.43Z" style="fill: rgb(38, 50, 56); transform-origin: 326.985px 66.8332px;" id="el3qyz26maelr" class="animable"></path></g><g id="freepik--Chart--inject-32" class="animable" style="transform-origin: 245.07px 120.836px;"><path d="M229.44,195a74.38,74.38,0,1,1,74.38-74.37A74.46,74.46,0,0,1,229.44,195Zm0-147.75a73.38,73.38,0,1,0,73.38,73.38A73.47,73.47,0,0,0,229.44,47.29Z" style="fill: rgb(38, 50, 56); transform-origin: 229.44px 120.62px;" id="elgk8xp213jqd" class="animable"></path><path d="M303.32,121.17H229.44a.51.51,0,0,1-.5-.5V46.79a.5.5,0,0,1,.5-.5,74.46,74.46,0,0,1,74.38,74.38A.51.51,0,0,1,303.32,121.17Zm-73.38-1h72.88a73.47,73.47,0,0,0-72.88-72.88Z" style="fill: rgb(38, 50, 56); transform-origin: 266.38px 83.73px;" id="el4n2n2rzlwwo" class="animable"></path><path d="M289.93,163.56a.52.52,0,0,1-.29-.09l-60.49-42.4a.52.52,0,0,1-.19-.56.51.51,0,0,1,.48-.34h73.88a.5.5,0,0,1,.5.5,73.87,73.87,0,0,1-13.48,42.67A.52.52,0,0,1,289.93,163.56ZM231,121.17l58.77,41.19a72.82,72.82,0,0,0,13-41.19Z" style="fill: rgb(38, 50, 56); transform-origin: 266.38px 141.865px;" id="el3pykh3k8o75" class="animable"></path><path d="M261.42,187.78a.51.51,0,0,1-.17,0,.46.46,0,0,1-.28-.25l-32-66.62a.5.5,0,0,1,.13-.6.51.51,0,0,1,.61,0l60.48,42.39a.47.47,0,0,1,.21.32.52.52,0,0,1-.08.37,74.72,74.72,0,0,1-28.71,24.39A.5.5,0,0,1,261.42,187.78Zm-30.7-65.61,30.93,64.44a73.78,73.78,0,0,0,27.58-23.43Z" style="fill: rgb(38, 50, 56); transform-origin: 259.664px 153.999px;" id="elgog3cncvhj" class="animable"></path><path d="M334.58,99.33h-46a.51.51,0,0,1-.5-.5.5.5,0,0,1,.5-.5h46a.5.5,0,0,1,.5.5A.5.5,0,0,1,334.58,99.33Z" style="fill: rgb(38, 50, 56); transform-origin: 311.58px 98.83px;" id="elglpviuk1afl" class="animable"></path><path d="M333.7,158.17a.45.45,0,0,1-.16,0l-45.76-15.69a.5.5,0,0,1,.32-.95l45.77,15.69a.5.5,0,0,1-.17,1Z" style="fill: rgb(38, 50, 56); transform-origin: 310.866px 149.866px;" id="el6rw5xzgks87" class="animable"></path><path d="M295.78,195.43a.49.49,0,0,1-.32-.12L270,173.08a.5.5,0,0,1,.65-.75l25.5,22.23a.49.49,0,0,1,.05.7A.52.52,0,0,1,295.78,195.43Z" style="fill: rgb(38, 50, 56); transform-origin: 283.098px 183.838px;" id="elpktml0ckln" class="animable"></path></g><g id="freepik--magnifying-glass--inject-32" class="animable" style="transform-origin: 573.629px 216.469px;"><path d="M593.65,204.34a9.6,9.6,0,0,1-6.29-16.85L690.67,89.7a16,16,0,1,1,21,24.19L599.93,202A9.57,9.57,0,0,1,593.65,204.34Z" style="fill: rgb(38, 50, 56); transform-origin: 650.625px 145.054px;" id="el8frhzjz8czv" class="animable"></path><g id="el1m1rxk1iw1c"><circle cx="519.3" cy="257.44" r="73.91" style="fill: rgb(255, 255, 255); opacity: 0.58; transform-origin: 519.3px 257.44px; transform: rotate(-89deg);" class="animable"></circle></g><path d="M519.3,168.21a89.23,89.23,0,1,0,89.22,89.23A89.23,89.23,0,0,0,519.3,168.21Zm0,163.14a73.91,73.91,0,1,1,73.9-73.91A73.91,73.91,0,0,1,519.3,331.35Z" style="fill: rgb(38, 50, 56); transform-origin: 519.29px 257.44px;" id="el2m0tv60we4v" class="animable"></path><path d="M525.39,168.21a89.23,89.23,0,1,0,89.23,89.23A89.22,89.22,0,0,0,525.39,168.21Zm0,163.14a73.91,73.91,0,1,1,73.91-73.91A73.91,73.91,0,0,1,525.39,331.35Z" style="fill: rgb(255, 255, 255); transform-origin: 525.39px 257.44px;" id="elvb4lb5s9pwm" class="animable"></path><path d="M525.39,347.17a89.73,89.73,0,1,1,89.73-89.73A89.83,89.83,0,0,1,525.39,347.17Zm0-178.46a88.73,88.73,0,1,0,88.73,88.73A88.82,88.82,0,0,0,525.39,168.71Zm0,163.14a74.41,74.41,0,1,1,74.41-74.41A74.49,74.49,0,0,1,525.39,331.85Zm0-147.82a73.41,73.41,0,1,0,73.41,73.41A73.49,73.49,0,0,0,525.39,184Z" style="fill: rgb(38, 50, 56); transform-origin: 525.39px 257.44px;" id="el51nzj8a5fxx" class="animable"></path></g><g id="freepik--Character--inject-32" class="animable" style="transform-origin: 95.785px 331.282px;"><path d="M91.13,181.45A17.05,17.05,0,0,1,102,183.74a15.87,15.87,0,0,1,5.4,5.2c3.5,5.81.76,9.13,3,11.51s4,3.39,3.61,5.11-3.1,3.07-3.5,3.37.76,5.85-.15,8.84-8.27,2.91-8.27,2.91-.84,5.44-1,7.23,1.48,15.53-6,11.3S83.29,230.79,82.84,229s1.92-7.32,2-9.06.16-2.56-.72-3.78-7-5.18-9.89-12.3.1-16.17,7.34-19.71A29.64,29.64,0,0,1,91.13,181.45Z" style="fill: rgb(255, 255, 255); transform-origin: 93.6018px 210.667px;" id="eliojszaxbmm" class="animable"></path><path d="M97.55,240.51a5.71,5.71,0,0,1-2.76-.87c-7.5-4.25-11.93-8.51-12.44-10.52-.3-1.2.43-3.59,1.15-5.9a19.27,19.27,0,0,0,.85-3.31v-.13c.09-1.61.12-2.28-.63-3.32a11.62,11.62,0,0,0-1.33-1.26c-2.24-2-6.41-5.61-8.62-11.16-3.06-7.67.34-16.79,7.58-20.34A29.56,29.56,0,0,1,91.08,181a17.64,17.64,0,0,1,11.13,2.36,16.25,16.25,0,0,1,5.57,5.37,13.81,13.81,0,0,1,2,7.88c0,1.53,0,2.63.9,3.54.53.56,1,1,1.47,1.47,1.51,1.46,2.61,2.51,2.27,4.09s-2.49,2.94-3.4,3.49l-.18.1c0,.32,0,1.11.1,1.81.18,2.07.41,4.91-.18,6.85-.88,2.91-6.58,3.23-8.32,3.26-.2,1.32-.81,5.33-1,6.8,0,.24,0,.83,0,1.51.08,3.16.22,9-2.45,10.63A2.89,2.89,0,0,1,97.55,240.51Zm-4.39-58.68a18.73,18.73,0,0,0-2,.11h0a28.67,28.67,0,0,0-9.39,2.66,15.21,15.21,0,0,0-7.09,19.07c2.12,5.32,6.17,8.87,8.35,10.78a11,11,0,0,1,1.48,1.42c1,1.33.91,2.27.82,4V220a19.53,19.53,0,0,1-.9,3.55c-.61,2-1.37,4.42-1.13,5.36.38,1.5,4.34,5.57,12,9.89,1.38.79,2.48.95,3.27.48,2.17-1.3,2-7,2-9.74a14,14,0,0,1,0-1.66c.2-1.77,1-7,1-7.25a.5.5,0,0,1,.5-.42c2,0,7.14-.41,7.79-2.56.54-1.76.3-4.6.15-6.47s-.19-2.36.18-2.63l.38-.23c.73-.44,2.67-1.6,2.93-2.83.21-1-.49-1.73-2-3.17-.46-.44-1-.93-1.5-1.5-1.15-1.2-1.16-2.6-1.18-4.22a12.93,12.93,0,0,0-1.91-7.37,15.18,15.18,0,0,0-5.23-5A16.5,16.5,0,0,0,93.16,181.83Zm17.74,27.33ZM91.13,181.45h0Z" style="fill: rgb(38, 50, 56); transform-origin: 93.5637px 210.692px;" id="elvacaasiortg" class="animable"></path><g style="clip-path: url(&quot;#freepik--clip-path-2--inject-32&quot;); transform-origin: 93.6018px 212.849px;" id="el5rmxlkp2wrs" class="animable"><g id="ellkwux64g7l"><path d="M91.13,181.45A17.05,17.05,0,0,1,102,183.74a15.87,15.87,0,0,1,5.4,5.2c3.5,5.81.76,9.13,3,11.51s4,3.39,3.61,5.11-3.1,3.07-3.5,3.37.76,5.85-.15,8.84-8.27,2.91-8.27,2.91-.84,5.44-1,7.23,4.9,10,5.35,14.38-3.87,1.15-11.33-3.08S83.29,230.79,82.84,229s1.92-7.32,2-9.06.16-2.56-.72-3.78-7-5.18-9.89-12.3.1-16.17,7.34-19.71A29.64,29.64,0,0,1,91.13,181.45Z" style="opacity: 0.15; transform-origin: 93.6018px 212.849px;" class="animable"></path></g></g><path d="M94.53,186.06c2.2-2.42,4.14-3.16,5.55-3.28a17.23,17.23,0,0,0-9-1.33,29.64,29.64,0,0,0-9.55,2.7c-7.24,3.54-10.18,12.58-7.34,19.71s9,11.08,9.89,12.3a3.77,3.77,0,0,1,.66,1.36c5.77-1.07,6.49-4.47,6.49-4.47a4.92,4.92,0,0,1-3.91.38c-2.13-.72-4.2-5.93-3.23-9.07s4.21-.63,5,1.29,2.3,3.15,3.11,2.56-.27-2.64-.47-4.14,2.94-5.1,3.4-6.59-1.31-2-3.46-3.08S90.08,191,94.53,186.06Z" style="fill: rgb(38, 50, 56); transform-origin: 86.6002px 199.423px;" id="elnarrvfoa14f" class="animable"></path><path d="M84.79,218a.51.51,0,0,1-.49-.38,3.12,3.12,0,0,0-.57-1.18,11.62,11.62,0,0,0-1.33-1.26c-2.24-2-6.41-5.61-8.62-11.16-3.06-7.67.34-16.79,7.58-20.34A29.56,29.56,0,0,1,91.08,181a17.79,17.79,0,0,1,9.2,1.37.49.49,0,0,1,.29.54.5.5,0,0,1-.45.42,8.42,8.42,0,0,0-5.22,3.12h0c-2.84,3.14-4.12,5.26-3.9,6.48a1.51,1.51,0,0,0,.93,1.07c.38.2.74.37,1.08.54,1.68.8,3.12,1.49,2.63,3.13a13.4,13.4,0,0,1-1.51,2.66c-.83,1.28-2,3-1.87,3.73a9.62,9.62,0,0,0,.37,1.5c.36,1.23.73,2.51-.1,3.11a1.44,1.44,0,0,1-1.24.17,4.93,4.93,0,0,1-2.64-2.95c-.46-1.14-1.9-2.53-2.94-2.47-.19,0-.75,0-1.09,1.14-.9,2.91,1,7.81,2.91,8.45a4.51,4.51,0,0,0,3.49-.34.52.52,0,0,1,.55,0,.51.51,0,0,1,.2.51c0,.15-.86,3.74-6.89,4.86Zm8.36-36.19a18.39,18.39,0,0,0-2,.11,28.67,28.67,0,0,0-9.39,2.66,15.21,15.21,0,0,0-7.09,19.07c2.12,5.32,6.17,8.87,8.35,10.78a11,11,0,0,1,1.48,1.42,4.58,4.58,0,0,1,.59,1.07c3.06-.66,4.5-2,5.15-2.95a5.23,5.23,0,0,1-3.07-.09c-2.49-.85-4.55-6.46-3.54-9.69.48-1.55,1.46-1.81,2-1.83,1.62-.08,3.38,1.75,3.91,3.09a4,4,0,0,0,2,2.36.4.4,0,0,0,.37,0c.26-.19-.07-1.33-.27-2a10.4,10.4,0,0,1-.4-1.65c-.15-1.08.9-2.69,2-4.4a13.93,13.93,0,0,0,1.39-2.41c.23-.75-.36-1.11-2.1-1.94l-1.11-.55A2.45,2.45,0,0,1,90,193.06c-.29-1.59,1-3.85,4.14-7.34h0a10.94,10.94,0,0,1,4.21-3.06A16.67,16.67,0,0,0,93.15,181.83Zm1.38,4.23h0Z" style="fill: rgb(38, 50, 56); transform-origin: 86.6167px 199.46px;" id="el535ny1sa477" class="animable"></path><path d="M95.19,218.41a.49.49,0,0,1-.21,0,9.56,9.56,0,0,1-4.26-4.71A.51.51,0,0,1,91,213a.51.51,0,0,1,.65.28,8.73,8.73,0,0,0,3.75,4.17.5.5,0,0,1-.21.95Z" style="fill: rgb(38, 50, 56); transform-origin: 93.1756px 215.694px;" id="eltjdo1cmpn7d" class="animable"></path><path d="M103.29,202a.5.5,0,0,1-.23-.94,7.11,7.11,0,0,1,3.48-.81.5.5,0,0,1,.46.54.51.51,0,0,1-.54.46,6.19,6.19,0,0,0-2.95.7A.44.44,0,0,1,103.29,202Z" style="fill: rgb(38, 50, 56); transform-origin: 104.9px 201.124px;" id="el10p3897kpe9" class="animable"></path><path d="M102,199.16a.42.42,0,0,1-.26-.08.5.5,0,0,1-.16-.69,4.42,4.42,0,0,1,2.92-2.19,4,4,0,0,1,2.91.74.49.49,0,0,1,.08.7.5.5,0,0,1-.7.09h0a3.05,3.05,0,0,0-2.13-.55,3.52,3.52,0,0,0-2.23,1.75A.51.51,0,0,1,102,199.16Z" style="fill: rgb(38, 50, 56); transform-origin: 104.553px 197.662px;" id="elgzveiz10jrj" class="animable"></path><path d="M106.75,212.5a3.87,3.87,0,0,1-2.93-1.37.49.49,0,0,1,0-.7.5.5,0,0,1,.71,0,2.77,2.77,0,0,0,3.42.75.5.5,0,0,1,.49.87A3.56,3.56,0,0,1,106.75,212.5Z" style="fill: rgb(38, 50, 56); transform-origin: 106.172px 211.391px;" id="elyxy5oocyu1o" class="animable"></path><path d="M151.14,476.08c-2-.57-12.21-6.81-12.21-6.81a15.78,15.78,0,0,0,0-3.69c-.28-.86-2.84-2.84-2.84-2.84s-2.27-20.72-2.27-30.66a176.19,176.19,0,0,0-2.27-24.7c-.28-1.13-8-80.33-8-80.33l-2.55-20.16-25.28,1.24L70.5,306.89l-2.56,20.16s-7.66,79.2-7.95,80.33a176.19,176.19,0,0,0-2.27,24.7c0,9.94-2.27,30.66-2.27,30.66s-2.55,2-2.84,2.84a15.78,15.78,0,0,0,0,3.69s-10.22,6.24-12.21,6.81-1.13,2.27,1.14,3.41,7.38,1.7,9.65,1.7,5.68-4,6.53-4.54.57,2.84.57,2.84a8.68,8.68,0,0,0,3.12-.57c1.14-.57,3.12.57,3.41-2.84s.28-6.81.28-6.81a12.43,12.43,0,0,0,2.56-3.69c.56-1.71,1.7-6.53,1.7-6.53l17.88-72.11,8.53-39.43,8.53,39.43,17.88,72.11s1.14,4.82,1.7,6.53a12.43,12.43,0,0,0,2.56,3.69s0,3.4.28,6.81,2.27,2.27,3.41,2.84a8.71,8.71,0,0,0,3.12.57s-.28-3.41.57-2.84,4.26,4.54,6.53,4.54,7.38-.57,9.65-1.7S153.12,476.65,151.14,476.08Z" style="fill: rgb(38, 50, 56); transform-origin: 95.7678px 394.04px;" id="ell2b4gi94l3l" class="animable"></path><path d="M140.35,481.69c-1.9,0-4.25-2.24-5.81-3.72-.28-.28-.56-.54-.76-.72a10.2,10.2,0,0,0,0,2.2.55.55,0,0,1-.13.38.51.51,0,0,1-.37.16,9.18,9.18,0,0,1-3.34-.62,2.32,2.32,0,0,0-.89-.16c-1.08-.08-2.55-.19-2.79-3.09s-.28-5.86-.29-6.65a12.16,12.16,0,0,1-2.53-3.74c-.57-1.7-1.67-6.37-1.72-6.57l-17.88-72.1-8-37.19-8,37.18L69.84,459.17c0,.19-1.14,4.86-1.71,6.56a12,12,0,0,1-2.53,3.74c0,.79,0,3.74-.28,6.65s-1.72,3-2.8,3.09a2.32,2.32,0,0,0-.89.16,9.18,9.18,0,0,1-3.34.62.52.52,0,0,1-.37-.16.55.55,0,0,1-.13-.38,9.59,9.59,0,0,0,0-2.2c-.2.18-.48.44-.76.72-1.56,1.48-3.91,3.72-5.81,3.72-2.15,0-7.42-.53-9.87-1.76-1.65-.82-2.61-1.93-2.52-2.91,0-.38.27-1.08,1.47-1.42,1.53-.44,8.8-4.76,11.82-6.6a13,13,0,0,1,0-3.58c.28-.86,2.16-2.41,2.84-2.94.23-2.2,2.24-21.14,2.24-30.4a174.31,174.31,0,0,1,2.29-24.82c.25-1.25,5.3-53.05,7.93-80.26L70,306.83a.49.49,0,0,1,.52-.44l25.28,1.24L121,306.39a.49.49,0,0,1,.52.44L124.1,327c2.63,27.22,7.68,79,7.94,80.28a176.09,176.09,0,0,1,2.28,24.81c0,9.26,2,28.2,2.25,30.4.67.53,2.55,2.08,2.83,2.94a13,13,0,0,1,.06,3.58c3,1.84,10.28,6.16,11.81,6.6,1.2.34,1.44,1,1.47,1.42.09,1-.87,2.09-2.52,2.91C147.77,481.16,142.5,481.69,140.35,481.69Zm-6.71-5.61a.84.84,0,0,1,.46.15,11.26,11.26,0,0,1,1.13,1c1.27,1.21,3.62,3.45,5.12,3.45,2.2,0,7.23-.55,9.43-1.65,1.35-.68,2-1.48,2-1.92s-.48-.48-.75-.56h0c-2-.58-11.91-6.61-12.33-6.87a.5.5,0,0,1-.24-.47,14.1,14.1,0,0,0,0-3.49,12,12,0,0,0-2.68-2.6.53.53,0,0,1-.19-.34c0-.21-2.27-20.86-2.27-30.71a175.86,175.86,0,0,0-2.26-24.58c-.28-1.13-7.17-72.29-8-80.4l-2.49-19.68L95.8,308.63l-24.87-1.21-2.49,19.69c-.79,8.1-7.68,79.26-8,80.39a175.86,175.86,0,0,0-2.26,24.58c0,9.85-2.25,30.5-2.27,30.71a.53.53,0,0,1-.19.34,11.86,11.86,0,0,0-2.67,2.6,13.56,13.56,0,0,0,0,3.49.48.48,0,0,1-.24.47c-.42.26-10.3,6.29-12.33,6.87-.27.08-.72.25-.75.56s.62,1.24,2,1.92c2.2,1.1,7.23,1.65,9.43,1.65,1.5,0,3.85-2.24,5.12-3.45a11.26,11.26,0,0,1,1.13-1,.75.75,0,0,1,.81-.05c.46.27.66,1.21.58,2.79a6.9,6.9,0,0,0,2.36-.5,3.27,3.27,0,0,1,1.26-.26c1-.07,1.7-.13,1.87-2.17.28-3.35.28-6.74.28-6.77a.49.49,0,0,1,.15-.36,11.83,11.83,0,0,0,2.43-3.49c.56-1.66,1.68-6.44,1.69-6.49l17.89-72.11,8.52-39.42a.5.5,0,0,1,.49-.39.49.49,0,0,1,.49.39l8.53,39.44,17.88,72.09c0,.05,1.13,4.83,1.69,6.49a11.83,11.83,0,0,0,2.43,3.49.49.49,0,0,1,.15.36s0,3.42.28,6.77c.17,2,.88,2.1,1.87,2.17a3.27,3.27,0,0,1,1.26.26,6.9,6.9,0,0,0,2.37.5c-.09-1.58.11-2.52.57-2.79A.74.74,0,0,1,133.64,476.08Z" style="fill: rgb(38, 50, 56); transform-origin: 95.785px 394.039px;" id="el60v821rghhd" class="animable"></path><path d="M58.23,243.05S42.64,297.24,42,298.6s3.38.68,7.22,1.35,9.26-2.25,9.94-3.38,6.32-18.75,6.32-18.75Z" style="fill: rgb(255, 255, 255); transform-origin: 53.7062px 271.549px;" id="elzlr78aeany" class="animable"></path><path d="M50.37,300.55a7.31,7.31,0,0,1-1.26-.1,31.14,31.14,0,0,0-4.14-.37c-1.92-.08-3.07-.13-3.46-.78a.92.92,0,0,1,0-.92c.59-1.26,11.91-40.47,16.23-55.47a.49.49,0,0,1,.49-.36.51.51,0,0,1,.48.4l7.22,34.77a.57.57,0,0,1,0,.26c-.58,1.8-5.68,17.7-6.37,18.84S54.16,300.55,50.37,300.55Zm-7.95-1.74a10.65,10.65,0,0,0,2.6.27,32.73,32.73,0,0,1,4.26.38c3.75.66,8.91-2.3,9.42-3.15s4-11.45,6.24-18.51l-6.79-32.67C55.09,255.76,43.1,297.36,42.42,298.81Z" style="fill: rgb(38, 50, 56); transform-origin: 53.6659px 271.55px;" id="elf5f0751ru" class="animable"></path><line x1="58.93" y1="260.61" x2="58.28" y2="259.04" style="fill: rgb(255, 255, 255); transform-origin: 58.605px 259.825px;" id="elx0qpijafb7" class="animable"></line><path d="M58.93,261.11a.5.5,0,0,1-.46-.3l-.65-1.57a.5.5,0,0,1,.93-.39l.65,1.57a.51.51,0,0,1-.28.66A.58.58,0,0,1,58.93,261.11Z" style="fill: rgb(38, 50, 56); transform-origin: 58.6088px 259.826px;" id="el0hegc5tv8v98" class="animable"></path><line x1="64.04" y1="272.98" x2="59.68" y2="262.42" style="fill: rgb(255, 255, 255); transform-origin: 61.86px 267.7px;" id="elgn972nez4sv" class="animable"></line><path d="M64,273.48a.51.51,0,0,1-.46-.31l-4.36-10.56a.5.5,0,1,1,.92-.38l4.37,10.55a.51.51,0,0,1-.28.66A.58.58,0,0,1,64,273.48Z" style="fill: rgb(38, 50, 56); transform-origin: 61.8139px 267.678px;" id="elkthgpwnwpoq" class="animable"></path><path d="M58.57,289.44l1.23.89" style="fill: rgb(255, 255, 255); transform-origin: 59.185px 289.885px;" id="else7kfeidlq" class="animable"></path><path d="M59.8,290.83a.53.53,0,0,1-.29-.1l-1.23-.88a.5.5,0,0,1-.12-.7.51.51,0,0,1,.7-.12l1.24.89a.51.51,0,0,1,.11.7A.52.52,0,0,1,59.8,290.83Z" style="fill: rgb(38, 50, 56); transform-origin: 59.1848px 289.885px;" id="el441en63whfm" class="animable"></path><path d="M47.05,287a37,37,0,0,1,5.16-1.52c.52,0,2.95,1.6,4.92,3" style="fill: rgb(255, 255, 255); transform-origin: 52.09px 286.98px;" id="elqyyh5rhuboi" class="animable"></path><path d="M57.13,288.93a.41.41,0,0,1-.28-.09C53,286.2,52.3,286,52.19,286a33.63,33.63,0,0,0-5,1.49.51.51,0,0,1-.64-.31.5.5,0,0,1,.3-.64A33.79,33.79,0,0,1,52.21,285c.26,0,.79,0,5.2,3a.5.5,0,0,1,.13.7A.49.49,0,0,1,57.13,288.93Z" style="fill: rgb(38, 50, 56); transform-origin: 52.075px 286.965px;" id="el1rkp2cy4kmy" class="animable"></path><path d="M130.49,239.89s17.84,47.64,18.29,49.45a12.22,12.22,0,0,1,.68,5c-.23,2-3.39,3.39-4.07,3.39s-5.64-3.17-7.68-4.07-8.13-3.84-8.13-3.84l-3.16-10.16Z" style="fill: rgb(255, 255, 255); transform-origin: 137.956px 268.81px;" id="elakg5pg6wpte" class="animable"></path><path d="M145.39,298.2c-.46,0-1.48-.56-4-2-1.45-.82-2.94-1.68-3.83-2.07-2-.9-8.08-3.82-8.14-3.85a.48.48,0,0,1-.26-.3L126,279.78a.46.46,0,0,1,0-.2L130,239.83a.49.49,0,0,1,.43-.44.52.52,0,0,1,.54.32c.73,1.95,17.85,47.7,18.3,49.51.08.29.15.57.22.83a10.44,10.44,0,0,1,.47,4.31C149.69,296.71,146.22,298.2,145.39,298.2ZM130,289.44c1.06.51,6.12,2.94,7.92,3.73.94.42,2.45,1.29,3.91,2.13a31.82,31.82,0,0,0,3.59,1.9c.49,0,3.35-1.26,3.54-2.95a9.4,9.4,0,0,0-.44-3.94c-.08-.27-.15-.55-.23-.85-.33-1.35-11.2-30.51-17.52-47.4l-3.84,37.52Z" style="fill: rgb(38, 50, 56); transform-origin: 138.001px 268.793px;" id="ellfefr4pwr6j" class="animable"></path><line x1="131.49" y1="255.35" x2="131.78" y2="254.19" style="fill: rgb(255, 255, 255); transform-origin: 131.635px 254.77px;" id="elvjtpwp99kr" class="animable"></line><path d="M131.49,255.85l-.13,0a.49.49,0,0,1-.36-.6l.3-1.17a.49.49,0,0,1,.6-.36.51.51,0,0,1,.37.61l-.3,1.16A.5.5,0,0,1,131.49,255.85Z" style="fill: rgb(38, 50, 56); transform-origin: 131.634px 254.777px;" id="elt7on7xvgsdq" class="animable"></path><line x1="127.23" y1="272.1" x2="131" y2="257.24" style="fill: rgb(255, 255, 255); transform-origin: 129.115px 264.67px;" id="el60b86yn7cut" class="animable"></line><path d="M127.23,272.6h-.13a.51.51,0,0,1-.36-.61l3.78-14.86a.5.5,0,0,1,.61-.36.51.51,0,0,1,.36.61l-3.78,14.86A.5.5,0,0,1,127.23,272.6Z" style="fill: rgb(38, 50, 56); transform-origin: 129.115px 264.677px;" id="elomjyykcfwl9" class="animable"></path><line x1="138.16" y1="280.61" x2="130.87" y2="285.16" style="fill: rgb(255, 255, 255); transform-origin: 134.515px 282.885px;" id="elzc6ha3wt64d" class="animable"></line><path d="M130.87,285.66a.48.48,0,0,1-.42-.23.5.5,0,0,1,.15-.69l7.29-4.56a.51.51,0,0,1,.69.16.49.49,0,0,1-.16.69l-7.29,4.56A.48.48,0,0,1,130.87,285.66Z" style="fill: rgb(38, 50, 56); transform-origin: 134.516px 282.884px;" id="elpknmix7v9fp" class="animable"></path><path d="M83.74,229.5,58.23,243.05l11.06,58.71s-.9,5.42-.22,6.55a5.89,5.89,0,0,0,1.8,1.81h49.91s3.38-3.17,3.38-3.84v-2.94l6.33-63.45-25.27-10.08Z" style="fill: rgb(255, 255, 255); transform-origin: 94.36px 269.81px;" id="elydk1in3aaol" class="animable"></path><path d="M120.78,310.62H70.87a.5.5,0,0,1-.26-.08,6.35,6.35,0,0,1-2-2c-.72-1.19,0-5.69.14-6.8L57.73,243.14a.5.5,0,0,1,.26-.53l25.52-13.55a.53.53,0,0,1,.24-.06l21.47.31a.48.48,0,0,1,.18,0l25.27,10.07a.5.5,0,0,1,.32.52l-6.33,63.45v2.89c0,.59-1.2,2-3.55,4.2A.49.49,0,0,1,120.78,310.62Zm-49.76-1h49.56a19.68,19.68,0,0,0,3.09-3.39v-2.89L130,240.21l-24.83-9.9L83.86,230,58.79,243.32l11,58.35a.48.48,0,0,1,0,.17c-.36,2.18-.69,5.54-.29,6.21A5.64,5.64,0,0,0,71,309.62Z" style="fill: rgb(38, 50, 56); transform-origin: 94.3575px 269.81px;" id="elze6eg3p7q9" class="animable"></path><polygon points="89.46 232.18 92.81 241.63 88.28 299.13 95.37 310.36 101.47 298.15 95.17 241.63 99.11 233.16 93.4 226.86 89.46 232.18" style="fill: rgb(38, 50, 56); transform-origin: 94.875px 268.61px;" id="elqdk2xpq60d" class="animable"></polygon><path d="M95.37,310.86a.49.49,0,0,1-.42-.24L87.86,299.4a.48.48,0,0,1-.08-.31L92.3,241.7,89,232.34a.51.51,0,0,1,.07-.46L93,226.56a.51.51,0,0,1,.38-.2.46.46,0,0,1,.39.16l5.71,6.31a.49.49,0,0,1,.09.54l-3.88,8.34L102,298.09a.44.44,0,0,1,0,.28l-6.1,12.21a.5.5,0,0,1-.42.28ZM88.79,299l6.53,10.33L101,298.06l-6.28-56.38a.46.46,0,0,1,0-.26l3.8-8.17-5.08-5.6L90,232.26l3.26,9.2a.76.76,0,0,1,0,.21Z" style="fill: rgb(38, 50, 56); transform-origin: 94.9005px 268.609px;" id="elkbwm7lacjg" class="animable"></path><polygon points="83.18 223.55 81.25 231.06 88.08 239.46 92.02 230.01 83.18 223.55" style="fill: rgb(255, 255, 255); transform-origin: 86.635px 231.505px;" id="elql98rlkpl5o" class="animable"></polygon><path d="M88.08,240a.46.46,0,0,1-.38-.18l-6.84-8.4a.5.5,0,0,1-.09-.44l1.92-7.52a.48.48,0,0,1,.32-.34.5.5,0,0,1,.46.06l8.85,6.47a.5.5,0,0,1,.16.59l-3.93,9.46a.52.52,0,0,1-.39.3Zm-6.28-9,6.14,7.56,3.47-8.32-7.93-5.79Z" style="fill: rgb(38, 50, 56); transform-origin: 86.6354px 231.545px;" id="eliy0tv6mun5k" class="animable"></path><polygon points="95.57 230.21 98.72 240.25 105.22 229.81 102.26 223.71 95.57 230.21" style="fill: rgb(255, 255, 255); transform-origin: 100.395px 231.98px;" id="elau65m7d2brs" class="animable"></polygon><path d="M98.72,240.75h-.06a.51.51,0,0,1-.42-.35l-3.15-10a.49.49,0,0,1,.13-.51l6.69-6.5a.51.51,0,0,1,.44-.13.48.48,0,0,1,.36.27l3,6.11a.51.51,0,0,1,0,.48l-6.5,10.43A.49.49,0,0,1,98.72,240.75Zm-2.58-10.4,2.73,8.71,5.78-9.28-2.54-5.23Z" style="fill: rgb(38, 50, 56); transform-origin: 100.418px 232.005px;" id="elhcsx8bcxmza" class="animable"></path><polygon points="111.75 296.79 110.84 289.79 116.94 290.92 111.75 296.79" style="fill: rgb(255, 255, 255); transform-origin: 113.89px 293.29px;" id="eldr2ex71rl5q" class="animable"></polygon><path d="M111.74,297.29a.36.36,0,0,1-.14,0,.49.49,0,0,1-.35-.41l-.9-7a.5.5,0,0,1,.58-.56l6.1,1.13a.49.49,0,0,1,.38.33.49.49,0,0,1-.1.49l-5.19,5.87A.5.5,0,0,1,111.74,297.29Zm-.31-6.88.67,5.23,3.88-4.39Z" style="fill: rgb(38, 50, 56); transform-origin: 113.891px 293.305px;" id="el1573u0pbv6m" class="animable"></path><path d="M95,275.57a39.51,39.51,0,0,1-5.64-1.13c-2-.68-3.39.22-1.81,2.25s7.23,2.94,7.91,2.94c0,0,1.12,5.87,4.29,7a16.49,16.49,0,0,0,5,1.13s1.59,2.26,3.62,2.48,6.77,3.62,6.77,3.62l2.26-5.2-5-4.06-5-8.58-4.74-1.58-4.06-1.36Z" style="fill: rgb(189, 189, 189); transform-origin: 102.133px 283.47px;" id="elu89o3oqm9k" class="animable"></path><path d="M115.13,294.36a.53.53,0,0,1-.29-.1c-1.29-.92-5-3.35-6.54-3.52a6.39,6.39,0,0,1-3.81-2.49,18.46,18.46,0,0,1-4.88-1.15c-2.94-1.05-4.22-5.64-4.53-7-1.57-.18-6.37-1.14-7.89-3.1-1.1-1.42-.82-2.26-.56-2.63.49-.69,1.61-.84,2.92-.41A35.58,35.58,0,0,0,94.91,275l3.45-2.37a.51.51,0,0,1,.45-.06l8.8,2.93a.49.49,0,0,1,.28.23l4.92,8.5,4.9,4a.49.49,0,0,1,.14.58l-2.26,5.2a.52.52,0,0,1-.32.28Zm-27-19.65a.88.88,0,0,0-.71.23c-.13.19-.07.68.53,1.45,1.42,1.82,6.91,2.74,7.51,2.74a.5.5,0,0,1,.49.41s1.11,5.6,4,6.62a16.42,16.42,0,0,0,4.81,1.1.49.49,0,0,1,.4.21s1.48,2.08,3.26,2.28,5.21,2.46,6.51,3.35l1.86-4.29L112.11,285a.37.37,0,0,1-.12-.13l-4.87-8.42-8.39-2.8L95.32,276a.48.48,0,0,1-.35.08,37.93,37.93,0,0,1-5.74-1.15A3.46,3.46,0,0,0,88.16,274.71Z" style="fill: rgb(38, 50, 56); transform-origin: 102.143px 283.451px;" id="elt34x8pp0pzc" class="animable"></path><path d="M107.68,281.66l-2,2a8.85,8.85,0,0,1,.22,1.81c0,.9-1.58.9-2.71.9a5.83,5.83,0,0,1-3.38-.9c-.91-.68-4.52-3.84-4.52-3.84l3.84-6.77-3.39,2.26a24,24,0,0,1-2.93,4.29c-1.36,1.35-1.81-.23-1.81-.23s1.35-4.29,2.26-5.42A49.55,49.55,0,0,1,97.29,272a9.06,9.06,0,0,1,2.71,0c1.58.23,4.74,2,6.1,2.94a7.66,7.66,0,0,1,2.71,3.61,7.07,7.07,0,0,1,.23,1.58" style="fill: rgb(189, 189, 189); transform-origin: 100.02px 279.137px;" id="elnu6skskg448" class="animable"></path><path d="M103.16,286.9a6.43,6.43,0,0,1-3.68-1c-.91-.68-4.4-3.73-4.55-3.86a.51.51,0,0,1-.11-.62l2.81-4.95-1.54,1a23.2,23.2,0,0,1-3,4.3,1.74,1.74,0,0,1-1.63.66,1.63,1.63,0,0,1-1-1.1.48.48,0,0,1,0-.29c.14-.45,1.41-4.41,2.35-5.58A49.41,49.41,0,0,1,97,271.57a.57.57,0,0,1,.22-.11,9.23,9.23,0,0,1,2.88,0c1.72.24,5,2.13,6.31,3a8.1,8.1,0,0,1,2.91,3.91,7.91,7.91,0,0,1,.25,1.7.5.5,0,0,1-.5.5h0a.5.5,0,0,1-.5-.5,5.78,5.78,0,0,0-2.72-4.78c-1.34-.89-4.44-2.65-5.89-2.85a9.14,9.14,0,0,0-2.42,0,48.2,48.2,0,0,0-3.89,3.68,25,25,0,0,0-2.12,5.1c.06.12.15.26.25.28s.34-.06.67-.4a22.63,22.63,0,0,0,2.85-4.17.69.69,0,0,1,.16-.18l3.39-2.26a.5.5,0,0,1,.62,0,.49.49,0,0,1,.09.61l-3.63,6.42c.89.78,3.45,3,4.18,3.55a5.3,5.3,0,0,0,3.08.8c.55,0,2.21,0,2.21-.4a8.07,8.07,0,0,0-.21-1.68.52.52,0,0,1,.13-.48l2-2a.48.48,0,0,1,.7,0,.5.5,0,0,1,0,.71l-1.84,1.83a8.16,8.16,0,0,1,.18,1.65C106.37,286.9,104.44,286.9,103.16,286.9Z" style="fill: rgb(38, 50, 56); transform-origin: 100.004px 279.126px;" id="elv8xeomiimmc" class="animable"></path><path d="M101.81,286.68a.49.49,0,0,1-.46-.3,4.77,4.77,0,0,1-.23-3.1,61,61,0,0,1,3.44-5.51.5.5,0,0,1,.82.56,58.91,58.91,0,0,0-3.33,5.32,3.61,3.61,0,0,0,.22,2.33.5.5,0,0,1-.27.66A.43.43,0,0,1,101.81,286.68Z" style="fill: rgb(38, 50, 56); transform-origin: 103.199px 282.139px;" id="elgc9rhu56zs9" class="animable"></path><path d="M99.78,286a.52.52,0,0,1-.38-.17s-.38-.43-.8-1a2.61,2.61,0,0,1-.24-2,3.73,3.73,0,0,0,.08-.64c0-1.43,2.83-6.17,3.39-7.11a.5.5,0,0,1,.86.52c-1.26,2.08-3.25,5.7-3.25,6.59a4.56,4.56,0,0,1-.09.8,1.73,1.73,0,0,0,.07,1.25c.38.53.73.93.73.93a.5.5,0,0,1,0,.71A.54.54,0,0,1,99.78,286Z" style="fill: rgb(38, 50, 56); transform-origin: 100.512px 280.419px;" id="eljz55f4btbsg" class="animable"></path><path d="M144.26,284.37s5.65,8.58,5.42,10.84-1.58,7.23-3.61,7.23a174.29,174.29,0,0,1-17.39-2.26c-6.32-1.13-10.61-1.58-10.61-1.58l-6.33-1.81L116,286.4l4.1.86a41.74,41.74,0,0,1,6-1c2.93-.23,12.73-2.58,12.73-2.58" style="fill: rgb(255, 255, 255); transform-origin: 130.713px 293.06px;" id="el8ld8yu0q0ig" class="animable"></path><path d="M146.07,302.94a172.89,172.89,0,0,1-17.48-2.27c-6.23-1.11-10.53-1.57-10.57-1.57l-6.41-1.83a.52.52,0,0,1-.32-.26.53.53,0,0,1,0-.41l4.29-10.39a.49.49,0,0,1,.57-.29l4,.83a42.2,42.2,0,0,1,5.94-1c2.86-.22,12.56-2.54,12.66-2.56a.49.49,0,0,1,.6.37.5.5,0,0,1-.37.6c-.4.1-9.87,2.36-12.81,2.59a40.15,40.15,0,0,0-5.88,1,.45.45,0,0,1-.23,0l-3.7-.77-3.92,9.48,5.79,1.66h0c.06,0,4.37.46,10.56,1.57a172.08,172.08,0,0,0,17.3,2.25c1.41,0,2.84-4.05,3.11-6.78.16-1.51-3.19-7.25-5.33-10.51a.5.5,0,1,1,.83-.55c.59.89,5.74,8.79,5.5,11.16C150,296.78,148.82,302.94,146.07,302.94Z" style="fill: rgb(38, 50, 56); transform-origin: 130.728px 293.057px;" id="elq8fn442bu98" class="animable"></path><path d="M118.37,296a.45.45,0,0,1-.27-.08.5.5,0,0,1-.15-.69,12.71,12.71,0,0,0,1.73-6.92.49.49,0,0,1,.46-.53.49.49,0,0,1,.53.46,13.43,13.43,0,0,1-1.88,7.53A.49.49,0,0,1,118.37,296Z" style="fill: rgb(38, 50, 56); transform-origin: 119.278px 291.889px;" id="elkp8uyor29sp" class="animable"></path><path d="M44.9,291.37s-3.84,9.26-4.06,9.94.68,5,4.29,4.06,22.81-2.93,25.29-3.38,6.32-1.13,6.32-1.13h5c2.26,0,8.58,0,9.94-.45l5.42-1.81c1.35-.45,4.29-2.26,4.51-2.94s-.67-1.35-2.93-1.13-9.26.46-9.26.46,6.32-2.49,8.35-3.39,1.36-1.81,1.36-1.81a11.62,11.62,0,0,0-3.84.68c-1.58.68-17.16,2.71-17.16,2.71l-1.81-1.58a13.41,13.41,0,0,0,.9-4.07c0-1.8-.9-3.16-2-2.71s-1.58,3.17-1.8,4.07S72,293.4,72,293.4l-.45,2s-9.26-1.81-12-2.94-8.35-2.71-9.26-2.48-2.71,2.71-3.16,3.84" style="fill: rgb(255, 255, 255); transform-origin: 71.2257px 295.118px;" id="eln9exzekd76" class="animable"></path><path d="M44.17,306a3.38,3.38,0,0,1-2.54-1.13,4.93,4.93,0,0,1-1.27-3.72c.23-.69,3.92-9.59,4.08-10a.5.5,0,0,1,.65-.27.49.49,0,0,1,.27.65c-1.32,3.2-3.87,9.38-4,9.91a4.27,4.27,0,0,0,1.14,2.81,2.53,2.53,0,0,0,2.56.61c2.33-.58,10.78-1.6,17.57-2.41,3.68-.44,6.86-.82,7.75-1l6.33-1.12h5c5.64,0,8.93-.15,9.78-.43l5.42-1.81a12.9,12.9,0,0,0,4.2-2.62.09.09,0,0,0,0-.11c-.16-.21-.85-.51-2.38-.36-2.25.23-9,.45-9.3.46a.54.54,0,0,1-.5-.4.5.5,0,0,1,.31-.57c.06,0,6.33-2.49,8.33-3.38.81-.36,1.06-.67,1.13-.83a10.08,10.08,0,0,0-3.21.62c-1.6.68-15.7,2.54-17.3,2.75a.55.55,0,0,1-.39-.12L76,292a.49.49,0,0,1-.13-.56,12.93,12.93,0,0,0,.86-3.88,2.74,2.74,0,0,0-.77-2.19.58.58,0,0,0-.57,0c-.74.29-1.2,2.38-1.4,3.27l-.11.45c-.23.91-1.32,4.4-1.36,4.54l-.44,2a.51.51,0,0,1-.59.38c-.38-.08-9.34-1.83-12.06-3s-8.24-2.6-9-2.46-2.33,2.33-2.81,3.54a.5.5,0,0,1-.65.28.49.49,0,0,1-.28-.65c.43-1.08,2.31-3.84,3.5-4.14s7.22,1.53,9.57,2.51,9.47,2.43,11.4,2.81l.34-1.55c0-.08,1.14-3.65,1.36-4.53l.1-.43c.38-1.69.88-3.53,2-4a1.55,1.55,0,0,1,1.5.16,3.61,3.61,0,0,1,1.21,3,12.87,12.87,0,0,1-.81,3.92l1.38,1.2c6.24-.81,15.7-2.17,16.8-2.64a12.08,12.08,0,0,1,4-.72.52.52,0,0,1,.4.2,1.21,1.21,0,0,1,.17,1A2.76,2.76,0,0,1,98,292.06c-1.17.51-3.7,1.53-5.67,2.32,2.19-.09,5-.22,6.32-.34,1.6-.16,2.76.09,3.26.72a1.11,1.11,0,0,1,.2,1.06c-.34,1-3.68,2.87-4.84,3.25l-5.42,1.81c-1.26.42-6.06.48-10.09.48h-5l-6.23,1.12c-.92.16-4,.53-7.81,1-6.41.77-15.18,1.82-17.45,2.39A4.33,4.33,0,0,1,44.17,306Z" style="fill: rgb(38, 50, 56); transform-origin: 71.2552px 295.133px;" id="el2lx443tvh25" class="animable"></path><path d="M65.38,300.53a.49.49,0,0,1-.38-.18c-2-2.32-.45-5.8-.38-6a.5.5,0,0,1,.66-.25.51.51,0,0,1,.25.67s-1.35,3.05.23,4.88a.51.51,0,0,1-.06.71A.49.49,0,0,1,65.38,300.53Z" style="fill: rgb(38, 50, 56); transform-origin: 64.9289px 297.293px;" id="elkot24ulg82" class="animable"></path><path d="M68.3,282.71l6.87,14a1.51,1.51,0,0,0,1.34.85l25.07.26a1.52,1.52,0,0,0,1.43-2.06L97.56,281.5a1.52,1.52,0,0,0-1.42-1H69.66A1.51,1.51,0,0,0,68.3,282.71Z" style="fill: rgb(146, 227, 169); transform-origin: 85.6185px 289.16px;" id="elfcidsztvrhe" class="animable"></path><path d="M101.59,298.29h0L76.51,298a2,2,0,0,1-1.79-1.13l-6.87-14h0a2,2,0,0,1,1.81-2.9H96.14A2,2,0,0,1,98,281.32l5.46,14.23a2,2,0,0,1-.23,1.87A2,2,0,0,1,101.59,298.29Zm-32.84-15.8,6.87,14a1,1,0,0,0,.9.57l25.06.26a1,1,0,0,0,1-1.38l-5.45-14.23a1,1,0,0,0-1-.65H69.66a1,1,0,0,0-.91,1.46Z" style="fill: rgb(38, 50, 56); transform-origin: 85.615px 289.13px;" id="el82bwxva5jmo" class="animable"></path><path d="M98.65,294.53c-2.26.23-9.26.46-9.26.46s6.32-2.49,8.35-3.39,1.36-1.81,1.36-1.81a11.62,11.62,0,0,0-3.84.68c-1.58.68-17.16,2.71-17.16,2.71l-1.81-1.58a13.41,13.41,0,0,0,.9-4.07c0-1.8-.9-3.16-2-2.71s-1.58,3.17-1.8,4.07S72,293.4,72,293.4l-.45,2s-1-.19-2.39-.49a8.1,8.1,0,0,0,.13,4.78,23.42,23.42,0,0,0,.89,2.3l.24,0c2.48-.46,6.32-1.13,6.32-1.13h5c2.26,0,8.58,0,9.94-.45l5.42-1.81c1.35-.45,4.29-2.26,4.51-2.94S100.91,294.31,98.65,294.53Z" style="fill: rgb(189, 189, 189); transform-origin: 85.2515px 293.362px;" id="el7nvcxb0ukaf" class="animable"></path><path d="M70.18,302.53a.51.51,0,0,1-.46-.3,24.67,24.67,0,0,1-.9-2.34,8.48,8.48,0,0,1-.14-5.08.51.51,0,0,1,.59-.35l1.9.39.34-1.55c0-.08,1.14-3.65,1.36-4.53l.1-.43c.38-1.69.88-3.53,2-4a1.55,1.55,0,0,1,1.5.16,3.61,3.61,0,0,1,1.21,3,12.87,12.87,0,0,1-.81,3.92l1.38,1.2c6.24-.81,15.7-2.17,16.8-2.64a12.08,12.08,0,0,1,4-.72.52.52,0,0,1,.4.2,1.21,1.21,0,0,1,.17,1A2.76,2.76,0,0,1,98,292.06c-1.17.51-3.7,1.53-5.67,2.32,2.19-.09,5-.22,6.32-.34h0c1.6-.16,2.76.09,3.26.72a1.11,1.11,0,0,1,.2,1.06c-.34,1-3.68,2.87-4.84,3.25l-5.41,1.81c-1.27.42-6.07.48-10.1.48h-5l-6.23,1.12-.25,0Zm-.65-7a7.6,7.6,0,0,0,.23,4c.24.71.48,1.34.72,1.9l6.18-1.1h5c5.64,0,8.93-.15,9.78-.43l5.42-1.81a12.9,12.9,0,0,0,4.2-2.62.09.09,0,0,0,0-.11c-.16-.21-.85-.51-2.38-.36h0c-2.25.23-9,.45-9.3.46a.54.54,0,0,1-.5-.4.5.5,0,0,1,.31-.57c.06,0,6.33-2.49,8.33-3.38.81-.36,1.06-.67,1.13-.83a10.08,10.08,0,0,0-3.21.62c-1.6.68-15.7,2.54-17.3,2.75a.55.55,0,0,1-.39-.12L76,292a.49.49,0,0,1-.13-.56,12.93,12.93,0,0,0,.86-3.88,2.74,2.74,0,0,0-.77-2.19.58.58,0,0,0-.57,0c-.74.29-1.2,2.38-1.4,3.27l-.11.45c-.23.91-1.32,4.4-1.36,4.54l-.44,2a.51.51,0,0,1-.59.38Zm29.12-1h0Z" style="fill: rgb(38, 50, 56); transform-origin: 85.262px 293.373px;" id="elnynwicciz1" class="animable"></path><path d="M86.67,299.64a.5.5,0,0,1-.06-1c.83-.09,8.08-.89,8.76-.89a42.68,42.68,0,0,0,5.14-2.18.49.49,0,0,1,.66.23.5.5,0,0,1-.23.67c-1.44.68-4.86,2.28-5.57,2.28-.47,0-5.43.53-8.65.89Z" style="fill: rgb(38, 50, 56); transform-origin: 93.681px 297.58px;" id="elgsaehn7o47n" class="animable"></path></g><defs>     <filter id="active" height="200%">         <feMorphology in="SourceAlpha" result="DILATED" operator="dilate" radius="2"></feMorphology>                <feFlood flood-color="#32DFEC" flood-opacity="1" result="PINK"></feFlood>        <feComposite in="PINK" in2="DILATED" operator="in" result="OUTLINE"></feComposite>        <feMerge>            <feMergeNode in="OUTLINE"></feMergeNode>            <feMergeNode in="SourceGraphic"></feMergeNode>        </feMerge>    </filter>    <filter id="hover" height="200%">        <feMorphology in="SourceAlpha" result="DILATED" operator="dilate" radius="2"></feMorphology>                <feFlood flood-color="#ff0000" flood-opacity="0.5" result="PINK"></feFlood>        <feComposite in="PINK" in2="DILATED" operator="in" result="OUTLINE"></feComposite>        <feMerge>            <feMergeNode in="OUTLINE"></feMergeNode>            <feMergeNode in="SourceGraphic"></feMergeNode>        </feMerge>            <feColorMatrix type="matrix" values="0   0   0   0   0                0   1   0   0   0                0   0   0   0   0                0   0   0   1   0 "></feColorMatrix>    </filter></defs><defs><clipPath id="freepik--clip-path--inject-32"><path d="M91.13,181.45A17.05,17.05,0,0,1,102,183.74a15.87,15.87,0,0,1,5.4,5.2c3.5,5.81.76,9.13,3,11.51s4,3.39,3.61,5.11-3.1,3.07-3.5,3.37.76,5.85-.15,8.84-8.27,2.91-8.27,2.91-.84,5.44-1,7.23,1.48,15.53-6,11.3S83.29,230.79,82.84,229s1.92-7.32,2-9.06.16-2.56-.72-3.78-7-5.18-9.89-12.3.1-16.17,7.34-19.71A29.64,29.64,0,0,1,91.13,181.45Z" style="fill:#fff"></path></clipPath><clipPath id="freepik--clip-path-2--inject-32"><path d="M97.55,240.51a5.71,5.71,0,0,1-2.76-.87c-7.5-4.25-11.93-8.51-12.44-10.52-.3-1.2.43-3.59,1.15-5.9a19.27,19.27,0,0,0,.85-3.31v-.13c.09-1.61.12-2.28-.63-3.32a11.62,11.62,0,0,0-1.33-1.26c-2.24-2-6.41-5.61-8.62-11.16-3.06-7.67.34-16.79,7.58-20.34A29.56,29.56,0,0,1,91.08,181a17.64,17.64,0,0,1,11.13,2.36,16.25,16.25,0,0,1,5.57,5.37,13.81,13.81,0,0,1,2,7.88c0,1.53,0,2.63.9,3.54.53.56,1,1,1.47,1.47,1.51,1.46,2.61,2.51,2.27,4.09s-2.49,2.94-3.4,3.49l-.18.1c0,.32,0,1.11.1,1.81.18,2.07.41,4.91-.18,6.85-.88,2.91-6.58,3.23-8.32,3.26-.2,1.32-.81,5.33-1,6.8,0,.24,0,.83,0,1.51.08,3.16.22,9-2.45,10.63A2.89,2.89,0,0,1,97.55,240.51Zm-4.39-58.68a18.73,18.73,0,0,0-2,.11h0a28.67,28.67,0,0,0-9.39,2.66,15.21,15.21,0,0,0-7.09,19.07c2.12,5.32,6.17,8.87,8.35,10.78a11,11,0,0,1,1.48,1.42c1,1.33.91,2.27.82,4V220a19.53,19.53,0,0,1-.9,3.55c-.61,2-1.37,4.42-1.13,5.36.38,1.5,4.34,5.57,12,9.89,1.38.79,2.48.95,3.27.48,2.17-1.3,2-7,2-9.74a14,14,0,0,1,0-1.66c.2-1.77,1-7,1-7.25a.5.5,0,0,1,.5-.42c2,0,7.14-.41,7.79-2.56.54-1.76.3-4.6.15-6.47s-.19-2.36.18-2.63l.38-.23c.73-.44,2.67-1.6,2.93-2.83.21-1-.49-1.73-2-3.17-.46-.44-1-.93-1.5-1.5-1.15-1.2-1.16-2.6-1.18-4.22a12.93,12.93,0,0,0-1.91-7.37,15.18,15.18,0,0,0-5.23-5A16.5,16.5,0,0,0,93.16,181.83Zm17.74,27.33ZM91.13,181.45h0Z" style="fill:#263238;clip-path:url(#freepik--clip-path--inject-32)"></path></clipPath></defs></svg>